<svg width="720" height="540" viewBox="0 0 720 540" fill="none" xmlns="http://www.w3.org/2000/svg">
<g clip-path="url(#clip0_746_521)">
<path fill-rule="evenodd" clip-rule="evenodd" d="M450.07 162.612H624.913L450.07 150.264V162.612Z" fill="#CD9E63"/>
<path fill-rule="evenodd" clip-rule="evenodd" d="M624.913 162.612V150.264H450.07L624.913 162.612Z" fill="#CD9E63"/>
<path fill-rule="evenodd" clip-rule="evenodd" d="M624.914 162.612H630.296L624.914 150.264V162.612Z" fill="#CD9E63"/>
<path fill-rule="evenodd" clip-rule="evenodd" d="M630.296 162.612V150.264H624.914L630.296 162.612Z" fill="#CD9E63"/>
<path fill-rule="evenodd" clip-rule="evenodd" d="M450.07 278.496H475.459L450.07 266.148V278.496Z" fill="#CD9E63"/>
<path fill-rule="evenodd" clip-rule="evenodd" d="M475.459 278.496V266.148H450.07L475.459 278.496Z" fill="#CD9E63"/>
<path fill-rule="evenodd" clip-rule="evenodd" d="M500.438 278.496H630.298L500.438 266.148V278.496Z" fill="#CD9E63"/>
<path fill-rule="evenodd" clip-rule="evenodd" d="M630.298 278.496V266.148H500.438L630.298 278.496Z" fill="#CD9E63"/>
<path fill-rule="evenodd" clip-rule="evenodd" d="M450.07 266.148H462.418L450.07 162.612V266.148Z" fill="#CD9E63"/>
<path fill-rule="evenodd" clip-rule="evenodd" d="M462.418 266.148V162.612H450.07L462.418 266.148Z" fill="#CD9E63"/>
<path fill-rule="evenodd" clip-rule="evenodd" d="M617.949 266.148H624.915L617.949 162.612V266.148Z" fill="#CD9E63"/>
<path fill-rule="evenodd" clip-rule="evenodd" d="M624.915 266.148V162.612H617.949L624.915 266.148Z" fill="#CD9E63"/>
<path fill-rule="evenodd" clip-rule="evenodd" d="M624.914 266.148H630.296L624.914 162.612V266.148Z" fill="#CD9E63"/>
<path fill-rule="evenodd" clip-rule="evenodd" d="M630.296 266.148V162.612H624.914L630.296 266.148Z" fill="#CD9E63"/>
<path fill-rule="evenodd" clip-rule="evenodd" d="M583.371 235.962H587.484L583.371 187.587V235.962Z" fill="#CD9E63"/>
<path fill-rule="evenodd" clip-rule="evenodd" d="M587.484 235.962V187.587H583.371L587.484 235.962Z" fill="#CD9E63"/>
<path fill-rule="evenodd" clip-rule="evenodd" d="M583.371 165.357H587.484L583.371 162.612V165.357Z" fill="#CD9E63"/>
<path fill-rule="evenodd" clip-rule="evenodd" d="M587.484 165.357V162.612H583.371L587.484 165.357Z" fill="#CD9E63"/>
<path fill-rule="evenodd" clip-rule="evenodd" d="M527.652 235.962H531.774L527.652 231.84V235.962Z" fill="#CD9E63"/>
<path fill-rule="evenodd" clip-rule="evenodd" d="M531.774 235.962V231.84H527.652L531.774 235.962Z" fill="#CD9E63"/>
<path fill-rule="evenodd" clip-rule="evenodd" d="M531.773 235.962H583.37L531.773 231.84V235.962Z" fill="#CD9E63"/>
<path fill-rule="evenodd" clip-rule="evenodd" d="M583.37 235.962V231.84H531.773L583.37 235.962Z" fill="#CD9E63"/>
<path fill-rule="evenodd" clip-rule="evenodd" d="M527.652 266.148H531.774L527.652 235.962V266.148Z" fill="#CD9E63"/>
<path fill-rule="evenodd" clip-rule="evenodd" d="M531.774 266.148V235.962H527.652L531.774 266.148Z" fill="#CD9E63"/>
<path d="M462.422 162.612H583.373" stroke="#CD9E63"/>
<path d="M587.484 162.612H617.949" stroke="#CD9E63"/>
<path d="M630.295 150.264H450.07" stroke="#CD9E63"/>
<path d="M450.07 278.496H475.459" stroke="#CD9E63"/>
<path d="M475.461 278.496V266.148" stroke="#CD9E63"/>
<path d="M475.463 266.148H462.422" stroke="#CD9E63"/>
<path d="M500.438 278.496H630.298" stroke="#CD9E63"/>
<path d="M617.948 266.148H531.773" stroke="#CD9E63"/>
<path d="M527.654 266.148H500.438" stroke="#CD9E63"/>
<path d="M500.438 266.148V278.496" stroke="#CD9E63"/>
<path d="M630.297 540V278.496" stroke="#CD9E63" stroke-width="2"/>
<path d="M630.297 262.017L703.107 0" stroke="#CD9E63" stroke-width="2"/>
<path d="M703.109 0H16.8945" stroke="#CD9E63" stroke-width="2"/>
<path d="M16.8945 0V162.612" stroke="#CD9E63" stroke-width="2"/>
<path d="M16.8945 162.612H33.9045" stroke="#CD9E63" stroke-width="2"/>
<path d="M33.9023 162.612V540" stroke="#CD9E63" stroke-width="2"/>
<path d="M33.9023 540H630.296" stroke="#CD9E63" stroke-width="2"/>
<path d="M587.484 188.208H617.949" stroke="#CD9E63"/>
<path d="M462.422 266.148V162.612" stroke="#CD9E63"/>
<path d="M450.07 150.264V278.496" stroke="#CD9E63"/>
<path d="M630.297 278.496V150.264" stroke="#CD9E63"/>
<path d="M617.949 162.612V266.148" stroke="#CD9E63"/>
<path d="M500.436 266.148L500.274 263.349L499.806 260.586L499.032 257.895L497.961 255.312L496.602 252.864L494.982 250.578L493.119 248.49L491.031 246.618L488.745 244.998L486.297 243.648L483.705 242.577L481.014 241.794L478.26 241.326L475.461 241.173" stroke="#CD9E63"/>
<path d="M475.461 266.148V241.173" stroke="#CD9E63"/>
<path d="M617.68 265.734V235.548" stroke="#CD9E63"/>
<path d="M587.484 265.734H617.679" stroke="#CD9E63"/>
<path d="M587.484 188.613H617.679" stroke="#CD9E63"/>
<path d="M587.484 235.548H617.679" stroke="#CD9E63"/>
<path d="M587.484 235.962V265.734" stroke="#CD9E63"/>
<path d="M617.68 196.434V188.613" stroke="#CD9E63"/>
<path d="M617.68 204.255V196.434" stroke="#CD9E63"/>
<path d="M617.68 212.085V204.255" stroke="#CD9E63"/>
<path d="M617.68 219.906V212.085" stroke="#CD9E63"/>
<path d="M617.68 227.727V219.906" stroke="#CD9E63"/>
<path d="M617.68 235.548V227.727" stroke="#CD9E63"/>
<path d="M579.664 265.734H587.485" stroke="#CD9E63"/>
<path d="M571.844 265.734H579.665" stroke="#CD9E63"/>
<path d="M564.02 265.734H571.84" stroke="#CD9E63"/>
<path d="M556.199 265.734H564.02" stroke="#CD9E63"/>
<path d="M548.379 265.734H556.2" stroke="#CD9E63"/>
<path d="M540.559 265.734H548.38" stroke="#CD9E63"/>
<path d="M532.738 265.734H540.559" stroke="#CD9E63"/>
<path d="M531.773 265.734H532.736" stroke="#CD9E63"/>
<path d="M587.484 196.434H588.717" stroke="#CD9E63"/>
<path d="M588.754 196.434H588.773" stroke="#CD9E63"/>
<path d="M588.809 196.434H590.177" stroke="#CD9E63"/>
<path d="M590.203 196.434H590.231" stroke="#CD9E63"/>
<path d="M590.258 196.434H591.635" stroke="#CD9E63"/>
<path d="M591.66 196.434H591.679" stroke="#CD9E63"/>
<path d="M591.715 196.434H593.083" stroke="#CD9E63"/>
<path d="M593.117 196.434H593.136" stroke="#CD9E63"/>
<path d="M593.164 196.434H594.541" stroke="#CD9E63"/>
<path d="M594.566 196.434H594.594" stroke="#CD9E63"/>
<path d="M594.621 196.434H595.989" stroke="#CD9E63"/>
<path d="M596.023 196.434H596.042" stroke="#CD9E63"/>
<path d="M596.078 196.434H597.446" stroke="#CD9E63"/>
<path d="M597.484 196.434H597.503" stroke="#CD9E63"/>
<path d="M597.527 196.434H598.904" stroke="#CD9E63"/>
<path d="M598.934 196.434H598.952" stroke="#CD9E63"/>
<path d="M598.984 196.434H600.352" stroke="#CD9E63"/>
<path d="M600.391 196.434H600.409" stroke="#CD9E63"/>
<path d="M600.434 196.434H601.811" stroke="#CD9E63"/>
<path d="M601.84 196.434H601.868" stroke="#CD9E63"/>
<path d="M601.895 196.434H603.272" stroke="#CD9E63"/>
<path d="M603.297 196.434H603.315" stroke="#CD9E63"/>
<path d="M603.352 196.434H604.719" stroke="#CD9E63"/>
<path d="M604.754 196.434H604.772" stroke="#CD9E63"/>
<path d="M604.801 196.434H606.178" stroke="#CD9E63"/>
<path d="M606.203 196.434H606.231" stroke="#CD9E63"/>
<path d="M606.258 196.434H607.626" stroke="#CD9E63"/>
<path d="M607.66 196.434H607.679" stroke="#CD9E63"/>
<path d="M607.715 196.434H609.083" stroke="#CD9E63"/>
<path d="M609.109 196.434H609.137" stroke="#CD9E63"/>
<path d="M609.164 196.434H610.541" stroke="#CD9E63"/>
<path d="M610.57 196.434H610.589" stroke="#CD9E63"/>
<path d="M610.625 196.434H611.993" stroke="#CD9E63"/>
<path d="M612.027 196.434H612.046" stroke="#CD9E63"/>
<path d="M612.07 196.434H613.447" stroke="#CD9E63"/>
<path d="M613.477 196.434H613.504" stroke="#CD9E63"/>
<path d="M613.531 196.434H614.908" stroke="#CD9E63"/>
<path d="M614.934 196.434H614.952" stroke="#CD9E63"/>
<path d="M614.988 196.434H616.356" stroke="#CD9E63"/>
<path d="M616.391 196.434H616.409" stroke="#CD9E63"/>
<path d="M616.438 196.434H617.68" stroke="#CD9E63"/>
<path d="M587.484 204.255H588.717" stroke="#CD9E63"/>
<path d="M588.754 204.255H588.773" stroke="#CD9E63"/>
<path d="M588.809 204.255H590.177" stroke="#CD9E63"/>
<path d="M590.203 204.255H590.231" stroke="#CD9E63"/>
<path d="M590.258 204.255H591.635" stroke="#CD9E63"/>
<path d="M591.66 204.255H591.679" stroke="#CD9E63"/>
<path d="M591.715 204.255H593.083" stroke="#CD9E63"/>
<path d="M593.117 204.255H593.136" stroke="#CD9E63"/>
<path d="M593.164 204.255H594.541" stroke="#CD9E63"/>
<path d="M594.566 204.255H594.594" stroke="#CD9E63"/>
<path d="M594.621 204.255H595.989" stroke="#CD9E63"/>
<path d="M596.023 204.255H596.042" stroke="#CD9E63"/>
<path d="M596.078 204.255H597.446" stroke="#CD9E63"/>
<path d="M597.484 204.255H597.503" stroke="#CD9E63"/>
<path d="M597.527 204.255H598.904" stroke="#CD9E63"/>
<path d="M598.934 204.255H598.952" stroke="#CD9E63"/>
<path d="M598.984 204.255H600.352" stroke="#CD9E63"/>
<path d="M600.391 204.255H600.409" stroke="#CD9E63"/>
<path d="M600.434 204.255H601.811" stroke="#CD9E63"/>
<path d="M601.84 204.255H601.868" stroke="#CD9E63"/>
<path d="M601.895 204.255H603.272" stroke="#CD9E63"/>
<path d="M603.297 204.255H603.315" stroke="#CD9E63"/>
<path d="M603.352 204.255H604.719" stroke="#CD9E63"/>
<path d="M604.754 204.255H604.772" stroke="#CD9E63"/>
<path d="M604.801 204.255H606.178" stroke="#CD9E63"/>
<path d="M606.203 204.255H606.231" stroke="#CD9E63"/>
<path d="M606.258 204.255H607.626" stroke="#CD9E63"/>
<path d="M607.66 204.255H607.679" stroke="#CD9E63"/>
<path d="M607.715 204.255H609.083" stroke="#CD9E63"/>
<path d="M609.109 204.255H609.137" stroke="#CD9E63"/>
<path d="M609.164 204.255H610.541" stroke="#CD9E63"/>
<path d="M610.57 204.255H610.589" stroke="#CD9E63"/>
<path d="M610.625 204.255H611.993" stroke="#CD9E63"/>
<path d="M612.027 204.255H612.046" stroke="#CD9E63"/>
<path d="M612.07 204.255H613.447" stroke="#CD9E63"/>
<path d="M613.477 204.255H613.504" stroke="#CD9E63"/>
<path d="M613.531 204.255H614.908" stroke="#CD9E63"/>
<path d="M614.934 204.255H614.952" stroke="#CD9E63"/>
<path d="M614.988 204.255H616.356" stroke="#CD9E63"/>
<path d="M616.391 204.255H616.409" stroke="#CD9E63"/>
<path d="M616.438 204.255H617.68" stroke="#CD9E63"/>
<path d="M587.484 212.085H588.717" stroke="#CD9E63"/>
<path d="M588.754 212.085H588.773" stroke="#CD9E63"/>
<path d="M588.809 212.085H590.177" stroke="#CD9E63"/>
<path d="M590.203 212.085H590.231" stroke="#CD9E63"/>
<path d="M590.258 212.085H591.635" stroke="#CD9E63"/>
<path d="M591.66 212.085H591.679" stroke="#CD9E63"/>
<path d="M591.715 212.085H593.083" stroke="#CD9E63"/>
<path d="M593.117 212.085H593.136" stroke="#CD9E63"/>
<path d="M593.164 212.085H594.541" stroke="#CD9E63"/>
<path d="M594.566 212.085H594.594" stroke="#CD9E63"/>
<path d="M594.621 212.085H595.989" stroke="#CD9E63"/>
<path d="M596.023 212.085H596.042" stroke="#CD9E63"/>
<path d="M596.078 212.085H597.446" stroke="#CD9E63"/>
<path d="M597.484 212.085H597.503" stroke="#CD9E63"/>
<path d="M597.527 212.085H598.904" stroke="#CD9E63"/>
<path d="M598.934 212.085H598.952" stroke="#CD9E63"/>
<path d="M598.984 212.085H600.352" stroke="#CD9E63"/>
<path d="M600.391 212.085H600.409" stroke="#CD9E63"/>
<path d="M600.434 212.085H601.811" stroke="#CD9E63"/>
<path d="M601.84 212.085H601.868" stroke="#CD9E63"/>
<path d="M601.895 212.085H603.272" stroke="#CD9E63"/>
<path d="M603.297 212.085H603.315" stroke="#CD9E63"/>
<path d="M603.352 212.085H604.719" stroke="#CD9E63"/>
<path d="M604.754 212.085H604.772" stroke="#CD9E63"/>
<path d="M604.801 212.085H606.178" stroke="#CD9E63"/>
<path d="M606.203 212.085H606.231" stroke="#CD9E63"/>
<path d="M606.258 212.085H607.626" stroke="#CD9E63"/>
<path d="M607.66 212.085H607.679" stroke="#CD9E63"/>
<path d="M607.715 212.085H609.083" stroke="#CD9E63"/>
<path d="M609.109 212.085H609.137" stroke="#CD9E63"/>
<path d="M609.164 212.085H610.541" stroke="#CD9E63"/>
<path d="M610.57 212.085H610.589" stroke="#CD9E63"/>
<path d="M610.625 212.085H611.993" stroke="#CD9E63"/>
<path d="M612.027 212.085H612.046" stroke="#CD9E63"/>
<path d="M612.07 212.085H613.447" stroke="#CD9E63"/>
<path d="M613.477 212.085H613.504" stroke="#CD9E63"/>
<path d="M613.531 212.085H614.908" stroke="#CD9E63"/>
<path d="M614.934 212.085H614.952" stroke="#CD9E63"/>
<path d="M614.988 212.085H616.356" stroke="#CD9E63"/>
<path d="M616.391 212.085H616.409" stroke="#CD9E63"/>
<path d="M616.438 212.085H617.68" stroke="#CD9E63"/>
<path d="M587.484 219.906H588.717" stroke="#CD9E63"/>
<path d="M588.754 219.906H588.773" stroke="#CD9E63"/>
<path d="M588.809 219.906H590.177" stroke="#CD9E63"/>
<path d="M590.203 219.906H590.231" stroke="#CD9E63"/>
<path d="M590.258 219.906H591.635" stroke="#CD9E63"/>
<path d="M591.66 219.906H591.679" stroke="#CD9E63"/>
<path d="M591.715 219.906H593.083" stroke="#CD9E63"/>
<path d="M593.117 219.906H593.136" stroke="#CD9E63"/>
<path d="M593.164 219.906H594.541" stroke="#CD9E63"/>
<path d="M594.566 219.906H594.594" stroke="#CD9E63"/>
<path d="M594.621 219.906H595.989" stroke="#CD9E63"/>
<path d="M596.023 219.906H596.042" stroke="#CD9E63"/>
<path d="M596.078 219.906H597.446" stroke="#CD9E63"/>
<path d="M597.484 219.906H597.503" stroke="#CD9E63"/>
<path d="M597.527 219.906H598.904" stroke="#CD9E63"/>
<path d="M598.934 219.906H598.952" stroke="#CD9E63"/>
<path d="M598.984 219.906H600.352" stroke="#CD9E63"/>
<path d="M600.391 219.906H600.409" stroke="#CD9E63"/>
<path d="M600.434 219.906H601.811" stroke="#CD9E63"/>
<path d="M601.84 219.906H601.868" stroke="#CD9E63"/>
<path d="M601.895 219.906H603.272" stroke="#CD9E63"/>
<path d="M603.297 219.906H603.315" stroke="#CD9E63"/>
<path d="M603.352 219.906H604.719" stroke="#CD9E63"/>
<path d="M604.754 219.906H604.772" stroke="#CD9E63"/>
<path d="M604.801 219.906H606.178" stroke="#CD9E63"/>
<path d="M606.203 219.906H606.231" stroke="#CD9E63"/>
<path d="M606.258 219.906H607.626" stroke="#CD9E63"/>
<path d="M607.66 219.906H607.679" stroke="#CD9E63"/>
<path d="M607.715 219.906H609.083" stroke="#CD9E63"/>
<path d="M609.109 219.906H609.137" stroke="#CD9E63"/>
<path d="M609.164 219.906H610.541" stroke="#CD9E63"/>
<path d="M610.57 219.906H610.589" stroke="#CD9E63"/>
<path d="M610.625 219.906H611.993" stroke="#CD9E63"/>
<path d="M612.027 219.906H612.046" stroke="#CD9E63"/>
<path d="M612.07 219.906H613.447" stroke="#CD9E63"/>
<path d="M613.477 219.906H613.504" stroke="#CD9E63"/>
<path d="M613.531 219.906H614.908" stroke="#CD9E63"/>
<path d="M614.934 219.906H614.952" stroke="#CD9E63"/>
<path d="M614.988 219.906H616.356" stroke="#CD9E63"/>
<path d="M616.391 219.906H616.409" stroke="#CD9E63"/>
<path d="M616.438 219.906H617.68" stroke="#CD9E63"/>
<path d="M587.484 227.727H588.717" stroke="#CD9E63"/>
<path d="M588.754 227.727H588.773" stroke="#CD9E63"/>
<path d="M588.809 227.727H590.177" stroke="#CD9E63"/>
<path d="M590.203 227.727H590.231" stroke="#CD9E63"/>
<path d="M590.258 227.727H591.635" stroke="#CD9E63"/>
<path d="M591.66 227.727H591.679" stroke="#CD9E63"/>
<path d="M591.715 227.727H593.083" stroke="#CD9E63"/>
<path d="M593.117 227.727H593.136" stroke="#CD9E63"/>
<path d="M593.164 227.727H594.541" stroke="#CD9E63"/>
<path d="M594.566 227.727H594.594" stroke="#CD9E63"/>
<path d="M594.621 227.727H595.989" stroke="#CD9E63"/>
<path d="M596.023 227.727H596.042" stroke="#CD9E63"/>
<path d="M596.078 227.727H597.446" stroke="#CD9E63"/>
<path d="M597.484 227.727H597.503" stroke="#CD9E63"/>
<path d="M597.527 227.727H598.904" stroke="#CD9E63"/>
<path d="M598.934 227.727H598.952" stroke="#CD9E63"/>
<path d="M598.984 227.727H600.352" stroke="#CD9E63"/>
<path d="M600.391 227.727H600.409" stroke="#CD9E63"/>
<path d="M600.434 227.727H601.811" stroke="#CD9E63"/>
<path d="M601.84 227.727H601.868" stroke="#CD9E63"/>
<path d="M601.895 227.727H603.272" stroke="#CD9E63"/>
<path d="M603.297 227.727H603.315" stroke="#CD9E63"/>
<path d="M603.352 227.727H604.719" stroke="#CD9E63"/>
<path d="M604.754 227.727H604.772" stroke="#CD9E63"/>
<path d="M604.801 227.727H606.178" stroke="#CD9E63"/>
<path d="M606.203 227.727H606.231" stroke="#CD9E63"/>
<path d="M606.258 227.727H607.626" stroke="#CD9E63"/>
<path d="M607.66 227.727H607.679" stroke="#CD9E63"/>
<path d="M607.715 227.727H609.083" stroke="#CD9E63"/>
<path d="M609.109 227.727H609.137" stroke="#CD9E63"/>
<path d="M609.164 227.727H610.541" stroke="#CD9E63"/>
<path d="M610.57 227.727H610.589" stroke="#CD9E63"/>
<path d="M610.625 227.727H611.993" stroke="#CD9E63"/>
<path d="M612.027 227.727H612.046" stroke="#CD9E63"/>
<path d="M612.07 227.727H613.447" stroke="#CD9E63"/>
<path d="M613.477 227.727H613.504" stroke="#CD9E63"/>
<path d="M613.531 227.727H614.908" stroke="#CD9E63"/>
<path d="M614.934 227.727H614.952" stroke="#CD9E63"/>
<path d="M614.988 227.727H616.356" stroke="#CD9E63"/>
<path d="M616.391 227.727H616.409" stroke="#CD9E63"/>
<path d="M616.438 227.727H617.68" stroke="#CD9E63"/>
<path d="M587.484 235.548H588.717" stroke="#CD9E63"/>
<path d="M588.754 235.548H588.773" stroke="#CD9E63"/>
<path d="M588.809 235.548H590.177" stroke="#CD9E63"/>
<path d="M590.203 235.548H590.231" stroke="#CD9E63"/>
<path d="M590.258 235.548H591.635" stroke="#CD9E63"/>
<path d="M591.66 235.548H591.679" stroke="#CD9E63"/>
<path d="M591.715 235.548H593.083" stroke="#CD9E63"/>
<path d="M593.117 235.548H593.136" stroke="#CD9E63"/>
<path d="M593.164 235.548H594.541" stroke="#CD9E63"/>
<path d="M594.566 235.548H594.594" stroke="#CD9E63"/>
<path d="M594.621 235.548H595.989" stroke="#CD9E63"/>
<path d="M596.023 235.548H596.042" stroke="#CD9E63"/>
<path d="M596.078 235.548H597.446" stroke="#CD9E63"/>
<path d="M597.484 235.548H597.503" stroke="#CD9E63"/>
<path d="M597.527 235.548H598.904" stroke="#CD9E63"/>
<path d="M598.934 235.548H598.952" stroke="#CD9E63"/>
<path d="M598.984 235.548H600.352" stroke="#CD9E63"/>
<path d="M600.391 235.548H600.409" stroke="#CD9E63"/>
<path d="M600.434 235.548H601.811" stroke="#CD9E63"/>
<path d="M601.84 235.548H601.868" stroke="#CD9E63"/>
<path d="M601.895 235.548H603.272" stroke="#CD9E63"/>
<path d="M603.297 235.548H603.315" stroke="#CD9E63"/>
<path d="M603.352 235.548H604.719" stroke="#CD9E63"/>
<path d="M604.754 235.548H604.772" stroke="#CD9E63"/>
<path d="M604.801 235.548H606.178" stroke="#CD9E63"/>
<path d="M606.203 235.548H606.231" stroke="#CD9E63"/>
<path d="M606.258 235.548H607.626" stroke="#CD9E63"/>
<path d="M607.66 235.548H607.679" stroke="#CD9E63"/>
<path d="M607.715 235.548H609.083" stroke="#CD9E63"/>
<path d="M609.109 235.548H609.137" stroke="#CD9E63"/>
<path d="M609.164 235.548H610.541" stroke="#CD9E63"/>
<path d="M610.57 235.548H610.589" stroke="#CD9E63"/>
<path d="M610.625 235.548H611.993" stroke="#CD9E63"/>
<path d="M612.027 235.548H612.046" stroke="#CD9E63"/>
<path d="M612.07 235.548H613.447" stroke="#CD9E63"/>
<path d="M613.477 235.548H613.504" stroke="#CD9E63"/>
<path d="M613.531 235.548H614.908" stroke="#CD9E63"/>
<path d="M614.934 235.548H614.952" stroke="#CD9E63"/>
<path d="M614.988 235.548H616.356" stroke="#CD9E63"/>
<path d="M616.391 235.548H616.409" stroke="#CD9E63"/>
<path d="M616.438 235.548H617.68" stroke="#CD9E63"/>
<path d="M579.664 235.962V236.988" stroke="#CD9E63"/>
<path d="M579.664 237.015V237.043" stroke="#CD9E63"/>
<path d="M579.664 237.069V238.446" stroke="#CD9E63"/>
<path d="M579.664 238.473V238.492" stroke="#CD9E63"/>
<path d="M579.664 238.527V239.895" stroke="#CD9E63"/>
<path d="M579.664 239.931V239.95" stroke="#CD9E63"/>
<path d="M579.664 239.976V241.353" stroke="#CD9E63"/>
<path d="M579.664 241.38V241.398" stroke="#CD9E63"/>
<path d="M579.664 241.434V242.802" stroke="#CD9E63"/>
<path d="M579.664 242.838V242.856" stroke="#CD9E63"/>
<path d="M579.664 242.892V244.26" stroke="#CD9E63"/>
<path d="M579.664 244.287V244.315" stroke="#CD9E63"/>
<path d="M579.664 244.341V245.718" stroke="#CD9E63"/>
<path d="M579.664 245.745V245.764" stroke="#CD9E63"/>
<path d="M579.664 245.799V247.167" stroke="#CD9E63"/>
<path d="M579.664 247.203V247.222" stroke="#CD9E63"/>
<path d="M579.664 247.248V248.625" stroke="#CD9E63"/>
<path d="M579.664 248.652V248.68" stroke="#CD9E63"/>
<path d="M579.664 248.706V250.074" stroke="#CD9E63"/>
<path d="M579.664 250.11V250.128" stroke="#CD9E63"/>
<path d="M579.664 250.164V251.532" stroke="#CD9E63"/>
<path d="M579.664 251.568V251.586" stroke="#CD9E63"/>
<path d="M579.664 251.613V252.99" stroke="#CD9E63"/>
<path d="M579.664 253.017V253.036" stroke="#CD9E63"/>
<path d="M579.664 253.071V254.439" stroke="#CD9E63"/>
<path d="M579.664 254.475V254.494" stroke="#CD9E63"/>
<path d="M579.664 254.52V255.897" stroke="#CD9E63"/>
<path d="M579.664 255.924V255.952" stroke="#CD9E63"/>
<path d="M579.664 255.978V257.355" stroke="#CD9E63"/>
<path d="M579.664 257.382V257.4" stroke="#CD9E63"/>
<path d="M579.664 257.436V258.804" stroke="#CD9E63"/>
<path d="M579.664 258.84V258.858" stroke="#CD9E63"/>
<path d="M579.664 258.885V260.262" stroke="#CD9E63"/>
<path d="M579.664 260.289V260.317" stroke="#CD9E63"/>
<path d="M579.664 260.343V261.711" stroke="#CD9E63"/>
<path d="M579.664 261.747V261.766" stroke="#CD9E63"/>
<path d="M579.664 261.801V263.169" stroke="#CD9E63"/>
<path d="M579.664 263.196V263.224" stroke="#CD9E63"/>
<path d="M579.664 263.25V264.627" stroke="#CD9E63"/>
<path d="M579.664 264.654V264.672" stroke="#CD9E63"/>
<path d="M579.664 264.708V265.734" stroke="#CD9E63"/>
<path d="M571.844 235.962V236.988" stroke="#CD9E63"/>
<path d="M571.844 237.015V237.043" stroke="#CD9E63"/>
<path d="M571.844 237.069V238.446" stroke="#CD9E63"/>
<path d="M571.844 238.473V238.492" stroke="#CD9E63"/>
<path d="M571.844 238.527V239.895" stroke="#CD9E63"/>
<path d="M571.844 239.931V239.95" stroke="#CD9E63"/>
<path d="M571.844 239.976V241.353" stroke="#CD9E63"/>
<path d="M571.844 241.38V241.398" stroke="#CD9E63"/>
<path d="M571.844 241.434V242.802" stroke="#CD9E63"/>
<path d="M571.844 242.838V242.856" stroke="#CD9E63"/>
<path d="M571.844 242.892V244.26" stroke="#CD9E63"/>
<path d="M571.844 244.287V244.315" stroke="#CD9E63"/>
<path d="M571.844 244.341V245.718" stroke="#CD9E63"/>
<path d="M571.844 245.745V245.764" stroke="#CD9E63"/>
<path d="M571.844 245.799V247.167" stroke="#CD9E63"/>
<path d="M571.844 247.203V247.222" stroke="#CD9E63"/>
<path d="M571.844 247.248V248.625" stroke="#CD9E63"/>
<path d="M571.844 248.652V248.68" stroke="#CD9E63"/>
<path d="M571.844 248.706V250.074" stroke="#CD9E63"/>
<path d="M571.844 250.11V250.128" stroke="#CD9E63"/>
<path d="M571.844 250.164V251.532" stroke="#CD9E63"/>
<path d="M571.844 251.568V251.586" stroke="#CD9E63"/>
<path d="M571.844 251.613V252.99" stroke="#CD9E63"/>
<path d="M571.844 253.017V253.036" stroke="#CD9E63"/>
<path d="M571.844 253.071V254.439" stroke="#CD9E63"/>
<path d="M571.844 254.475V254.494" stroke="#CD9E63"/>
<path d="M571.844 254.52V255.897" stroke="#CD9E63"/>
<path d="M571.844 255.924V255.952" stroke="#CD9E63"/>
<path d="M571.844 255.978V257.355" stroke="#CD9E63"/>
<path d="M571.844 257.382V257.4" stroke="#CD9E63"/>
<path d="M571.844 257.436V258.804" stroke="#CD9E63"/>
<path d="M571.844 258.84V258.858" stroke="#CD9E63"/>
<path d="M571.844 258.885V260.262" stroke="#CD9E63"/>
<path d="M571.844 260.289V260.317" stroke="#CD9E63"/>
<path d="M571.844 260.343V261.711" stroke="#CD9E63"/>
<path d="M571.844 261.747V261.766" stroke="#CD9E63"/>
<path d="M571.844 261.801V263.169" stroke="#CD9E63"/>
<path d="M571.844 263.196V263.224" stroke="#CD9E63"/>
<path d="M571.844 263.25V264.627" stroke="#CD9E63"/>
<path d="M571.844 264.654V264.672" stroke="#CD9E63"/>
<path d="M571.844 264.708V265.734" stroke="#CD9E63"/>
<path d="M564.02 235.962V236.988" stroke="#CD9E63"/>
<path d="M564.02 237.015V237.043" stroke="#CD9E63"/>
<path d="M564.02 237.069V238.446" stroke="#CD9E63"/>
<path d="M564.02 238.473V238.492" stroke="#CD9E63"/>
<path d="M564.02 238.527V239.895" stroke="#CD9E63"/>
<path d="M564.02 239.931V239.95" stroke="#CD9E63"/>
<path d="M564.02 239.976V241.353" stroke="#CD9E63"/>
<path d="M564.02 241.38V241.398" stroke="#CD9E63"/>
<path d="M564.02 241.434V242.802" stroke="#CD9E63"/>
<path d="M564.02 242.838V242.856" stroke="#CD9E63"/>
<path d="M564.02 242.892V244.26" stroke="#CD9E63"/>
<path d="M564.02 244.287V244.315" stroke="#CD9E63"/>
<path d="M564.02 244.341V245.718" stroke="#CD9E63"/>
<path d="M564.02 245.745V245.764" stroke="#CD9E63"/>
<path d="M564.02 245.799V247.167" stroke="#CD9E63"/>
<path d="M564.02 247.203V247.222" stroke="#CD9E63"/>
<path d="M564.02 247.248V248.625" stroke="#CD9E63"/>
<path d="M564.02 248.652V248.68" stroke="#CD9E63"/>
<path d="M564.02 248.706V250.074" stroke="#CD9E63"/>
<path d="M564.02 250.11V250.128" stroke="#CD9E63"/>
<path d="M564.02 250.164V251.532" stroke="#CD9E63"/>
<path d="M564.02 251.568V251.586" stroke="#CD9E63"/>
<path d="M564.02 251.613V252.99" stroke="#CD9E63"/>
<path d="M564.02 253.017V253.036" stroke="#CD9E63"/>
<path d="M564.02 253.071V254.439" stroke="#CD9E63"/>
<path d="M564.02 254.475V254.494" stroke="#CD9E63"/>
<path d="M564.02 254.52V255.897" stroke="#CD9E63"/>
<path d="M564.02 255.924V255.952" stroke="#CD9E63"/>
<path d="M564.02 255.978V257.355" stroke="#CD9E63"/>
<path d="M564.02 257.382V257.4" stroke="#CD9E63"/>
<path d="M564.02 257.436V258.804" stroke="#CD9E63"/>
<path d="M564.02 258.84V258.858" stroke="#CD9E63"/>
<path d="M564.02 258.885V260.262" stroke="#CD9E63"/>
<path d="M564.02 260.289V260.317" stroke="#CD9E63"/>
<path d="M564.02 260.343V261.711" stroke="#CD9E63"/>
<path d="M564.02 261.747V261.766" stroke="#CD9E63"/>
<path d="M564.02 261.801V263.169" stroke="#CD9E63"/>
<path d="M564.02 263.196V263.224" stroke="#CD9E63"/>
<path d="M564.02 263.25V264.627" stroke="#CD9E63"/>
<path d="M564.02 264.654V264.672" stroke="#CD9E63"/>
<path d="M564.02 264.708V265.734" stroke="#CD9E63"/>
<path d="M556.199 235.962V236.988" stroke="#CD9E63"/>
<path d="M556.199 237.015V237.043" stroke="#CD9E63"/>
<path d="M556.199 237.069V238.446" stroke="#CD9E63"/>
<path d="M556.199 238.473V238.492" stroke="#CD9E63"/>
<path d="M556.199 238.527V239.895" stroke="#CD9E63"/>
<path d="M556.199 239.931V239.95" stroke="#CD9E63"/>
<path d="M556.199 239.976V241.353" stroke="#CD9E63"/>
<path d="M556.199 241.38V241.398" stroke="#CD9E63"/>
<path d="M556.199 241.434V242.802" stroke="#CD9E63"/>
<path d="M556.199 242.838V242.856" stroke="#CD9E63"/>
<path d="M556.199 242.892V244.26" stroke="#CD9E63"/>
<path d="M556.199 244.287V244.315" stroke="#CD9E63"/>
<path d="M556.199 244.341V245.718" stroke="#CD9E63"/>
<path d="M556.199 245.745V245.764" stroke="#CD9E63"/>
<path d="M556.199 245.799V247.167" stroke="#CD9E63"/>
<path d="M556.199 247.203V247.222" stroke="#CD9E63"/>
<path d="M556.199 247.248V248.625" stroke="#CD9E63"/>
<path d="M556.199 248.652V248.68" stroke="#CD9E63"/>
<path d="M556.199 248.706V250.074" stroke="#CD9E63"/>
<path d="M556.199 250.11V250.128" stroke="#CD9E63"/>
<path d="M556.199 250.164V251.532" stroke="#CD9E63"/>
<path d="M556.199 251.568V251.586" stroke="#CD9E63"/>
<path d="M556.199 251.613V252.99" stroke="#CD9E63"/>
<path d="M556.199 253.017V253.036" stroke="#CD9E63"/>
<path d="M556.199 253.071V254.439" stroke="#CD9E63"/>
<path d="M556.199 254.475V254.494" stroke="#CD9E63"/>
<path d="M556.199 254.52V255.897" stroke="#CD9E63"/>
<path d="M556.199 255.924V255.952" stroke="#CD9E63"/>
<path d="M556.199 255.978V257.355" stroke="#CD9E63"/>
<path d="M556.199 257.382V257.4" stroke="#CD9E63"/>
<path d="M556.199 257.436V258.804" stroke="#CD9E63"/>
<path d="M556.199 258.84V258.858" stroke="#CD9E63"/>
<path d="M556.199 258.885V260.262" stroke="#CD9E63"/>
<path d="M556.199 260.289V260.317" stroke="#CD9E63"/>
<path d="M556.199 260.343V261.711" stroke="#CD9E63"/>
<path d="M556.199 261.747V261.766" stroke="#CD9E63"/>
<path d="M556.199 261.801V263.169" stroke="#CD9E63"/>
<path d="M556.199 263.196V263.224" stroke="#CD9E63"/>
<path d="M556.199 263.25V264.627" stroke="#CD9E63"/>
<path d="M556.199 264.654V264.672" stroke="#CD9E63"/>
<path d="M556.199 264.708V265.734" stroke="#CD9E63"/>
<path d="M548.379 235.962V236.988" stroke="#CD9E63"/>
<path d="M548.379 237.015V237.043" stroke="#CD9E63"/>
<path d="M548.379 237.069V238.446" stroke="#CD9E63"/>
<path d="M548.379 238.473V238.492" stroke="#CD9E63"/>
<path d="M548.379 238.527V239.895" stroke="#CD9E63"/>
<path d="M548.379 239.931V239.95" stroke="#CD9E63"/>
<path d="M548.379 239.976V241.353" stroke="#CD9E63"/>
<path d="M548.379 241.38V241.398" stroke="#CD9E63"/>
<path d="M548.379 241.434V242.802" stroke="#CD9E63"/>
<path d="M548.379 242.838V242.856" stroke="#CD9E63"/>
<path d="M548.379 242.892V244.26" stroke="#CD9E63"/>
<path d="M548.379 244.287V244.315" stroke="#CD9E63"/>
<path d="M548.379 244.341V245.718" stroke="#CD9E63"/>
<path d="M548.379 245.745V245.764" stroke="#CD9E63"/>
<path d="M548.379 245.799V247.167" stroke="#CD9E63"/>
<path d="M548.379 247.203V247.222" stroke="#CD9E63"/>
<path d="M548.379 247.248V248.625" stroke="#CD9E63"/>
<path d="M548.379 248.652V248.68" stroke="#CD9E63"/>
<path d="M548.379 248.706V250.074" stroke="#CD9E63"/>
<path d="M548.379 250.11V250.128" stroke="#CD9E63"/>
<path d="M548.379 250.164V251.532" stroke="#CD9E63"/>
<path d="M548.379 251.568V251.586" stroke="#CD9E63"/>
<path d="M548.379 251.613V252.99" stroke="#CD9E63"/>
<path d="M548.379 253.017V253.036" stroke="#CD9E63"/>
<path d="M548.379 253.071V254.439" stroke="#CD9E63"/>
<path d="M548.379 254.475V254.494" stroke="#CD9E63"/>
<path d="M548.379 254.52V255.897" stroke="#CD9E63"/>
<path d="M548.379 255.924V255.952" stroke="#CD9E63"/>
<path d="M548.379 255.978V257.355" stroke="#CD9E63"/>
<path d="M548.379 257.382V257.4" stroke="#CD9E63"/>
<path d="M548.379 257.436V258.804" stroke="#CD9E63"/>
<path d="M548.379 258.84V258.858" stroke="#CD9E63"/>
<path d="M548.379 258.885V260.262" stroke="#CD9E63"/>
<path d="M548.379 260.289V260.317" stroke="#CD9E63"/>
<path d="M548.379 260.343V261.711" stroke="#CD9E63"/>
<path d="M548.379 261.747V261.766" stroke="#CD9E63"/>
<path d="M548.379 261.801V263.169" stroke="#CD9E63"/>
<path d="M548.379 263.196V263.224" stroke="#CD9E63"/>
<path d="M548.379 263.25V264.627" stroke="#CD9E63"/>
<path d="M548.379 264.654V264.672" stroke="#CD9E63"/>
<path d="M548.379 264.708V265.734" stroke="#CD9E63"/>
<path d="M540.559 235.962V236.988" stroke="#CD9E63"/>
<path d="M540.559 237.015V237.043" stroke="#CD9E63"/>
<path d="M540.559 237.069V238.446" stroke="#CD9E63"/>
<path d="M540.559 238.473V238.492" stroke="#CD9E63"/>
<path d="M540.559 238.527V239.895" stroke="#CD9E63"/>
<path d="M540.559 239.931V239.95" stroke="#CD9E63"/>
<path d="M540.559 239.976V241.353" stroke="#CD9E63"/>
<path d="M540.559 241.38V241.398" stroke="#CD9E63"/>
<path d="M540.559 241.434V242.802" stroke="#CD9E63"/>
<path d="M540.559 242.838V242.856" stroke="#CD9E63"/>
<path d="M540.559 242.892V244.26" stroke="#CD9E63"/>
<path d="M540.559 244.287V244.315" stroke="#CD9E63"/>
<path d="M540.559 244.341V245.718" stroke="#CD9E63"/>
<path d="M540.559 245.745V245.764" stroke="#CD9E63"/>
<path d="M540.559 245.799V247.167" stroke="#CD9E63"/>
<path d="M540.559 247.203V247.222" stroke="#CD9E63"/>
<path d="M540.559 247.248V248.625" stroke="#CD9E63"/>
<path d="M540.559 248.652V248.68" stroke="#CD9E63"/>
<path d="M540.559 248.706V250.074" stroke="#CD9E63"/>
<path d="M540.559 250.11V250.128" stroke="#CD9E63"/>
<path d="M540.559 250.164V251.532" stroke="#CD9E63"/>
<path d="M540.559 251.568V251.586" stroke="#CD9E63"/>
<path d="M540.559 251.613V252.99" stroke="#CD9E63"/>
<path d="M540.559 253.017V253.036" stroke="#CD9E63"/>
<path d="M540.559 253.071V254.439" stroke="#CD9E63"/>
<path d="M540.559 254.475V254.494" stroke="#CD9E63"/>
<path d="M540.559 254.52V255.897" stroke="#CD9E63"/>
<path d="M540.559 255.924V255.952" stroke="#CD9E63"/>
<path d="M540.559 255.978V257.355" stroke="#CD9E63"/>
<path d="M540.559 257.382V257.4" stroke="#CD9E63"/>
<path d="M540.559 257.436V258.804" stroke="#CD9E63"/>
<path d="M540.559 258.84V258.858" stroke="#CD9E63"/>
<path d="M540.559 258.885V260.262" stroke="#CD9E63"/>
<path d="M540.559 260.289V260.317" stroke="#CD9E63"/>
<path d="M540.559 260.343V261.711" stroke="#CD9E63"/>
<path d="M540.559 261.747V261.766" stroke="#CD9E63"/>
<path d="M540.559 261.801V263.169" stroke="#CD9E63"/>
<path d="M540.559 263.196V263.224" stroke="#CD9E63"/>
<path d="M540.559 263.25V264.627" stroke="#CD9E63"/>
<path d="M540.559 264.654V264.672" stroke="#CD9E63"/>
<path d="M540.559 264.708V265.734" stroke="#CD9E63"/>
<path d="M532.738 235.962V236.988" stroke="#CD9E63"/>
<path d="M532.738 237.015V237.043" stroke="#CD9E63"/>
<path d="M532.738 237.069V238.446" stroke="#CD9E63"/>
<path d="M532.738 238.473V238.492" stroke="#CD9E63"/>
<path d="M532.738 238.527V239.895" stroke="#CD9E63"/>
<path d="M532.738 239.931V239.95" stroke="#CD9E63"/>
<path d="M532.738 239.976V241.353" stroke="#CD9E63"/>
<path d="M532.738 241.38V241.398" stroke="#CD9E63"/>
<path d="M532.738 241.434V242.802" stroke="#CD9E63"/>
<path d="M532.738 242.838V242.856" stroke="#CD9E63"/>
<path d="M532.738 242.892V244.26" stroke="#CD9E63"/>
<path d="M532.738 244.287V244.315" stroke="#CD9E63"/>
<path d="M532.738 244.341V245.718" stroke="#CD9E63"/>
<path d="M532.738 245.745V245.764" stroke="#CD9E63"/>
<path d="M532.738 245.799V247.167" stroke="#CD9E63"/>
<path d="M532.738 247.203V247.222" stroke="#CD9E63"/>
<path d="M532.738 247.248V248.625" stroke="#CD9E63"/>
<path d="M532.738 248.652V248.68" stroke="#CD9E63"/>
<path d="M532.738 248.706V250.074" stroke="#CD9E63"/>
<path d="M532.738 250.11V250.128" stroke="#CD9E63"/>
<path d="M532.738 250.164V251.532" stroke="#CD9E63"/>
<path d="M532.738 251.568V251.586" stroke="#CD9E63"/>
<path d="M532.738 251.613V252.99" stroke="#CD9E63"/>
<path d="M532.738 253.017V253.036" stroke="#CD9E63"/>
<path d="M532.738 253.071V254.439" stroke="#CD9E63"/>
<path d="M532.738 254.475V254.494" stroke="#CD9E63"/>
<path d="M532.738 254.52V255.897" stroke="#CD9E63"/>
<path d="M532.738 255.924V255.952" stroke="#CD9E63"/>
<path d="M532.738 255.978V257.355" stroke="#CD9E63"/>
<path d="M532.738 257.382V257.4" stroke="#CD9E63"/>
<path d="M532.738 257.436V258.804" stroke="#CD9E63"/>
<path d="M532.738 258.84V258.858" stroke="#CD9E63"/>
<path d="M532.738 258.885V260.262" stroke="#CD9E63"/>
<path d="M532.738 260.289V260.317" stroke="#CD9E63"/>
<path d="M532.738 260.343V261.711" stroke="#CD9E63"/>
<path d="M532.738 261.747V261.766" stroke="#CD9E63"/>
<path d="M532.738 261.801V263.169" stroke="#CD9E63"/>
<path d="M532.738 263.196V263.224" stroke="#CD9E63"/>
<path d="M532.738 263.25V264.627" stroke="#CD9E63"/>
<path d="M532.738 264.654V264.672" stroke="#CD9E63"/>
<path d="M532.738 264.708V265.734" stroke="#CD9E63"/>
<path d="M587.484 196.434H617.679" stroke="#CD9E63"/>
<path d="M587.484 204.255H617.679" stroke="#CD9E63"/>
<path d="M587.484 212.085H617.679" stroke="#CD9E63"/>
<path d="M587.484 219.906H617.679" stroke="#CD9E63"/>
<path d="M587.484 227.727H617.679" stroke="#CD9E63"/>
<path d="M579.664 235.962V265.734" stroke="#CD9E63"/>
<path d="M571.844 235.962V265.734" stroke="#CD9E63"/>
<path d="M564.02 235.962V265.734" stroke="#CD9E63"/>
<path d="M556.199 235.962V265.734" stroke="#CD9E63"/>
<path d="M548.379 235.962V265.734" stroke="#CD9E63"/>
<path d="M540.559 235.962V265.734" stroke="#CD9E63"/>
<path d="M532.738 235.962V265.734" stroke="#CD9E63"/>
<path d="M602.578 196.434V188.613" stroke="#CD9E63"/>
<path d="M602.578 204.255V196.434" stroke="#CD9E63"/>
<path d="M602.578 212.085V204.255" stroke="#CD9E63"/>
<path d="M602.578 219.906V212.085" stroke="#CD9E63"/>
<path d="M602.578 227.727V219.906" stroke="#CD9E63"/>
<path d="M602.578 235.548V227.727" stroke="#CD9E63"/>
<path d="M579.664 250.641H587.485" stroke="#CD9E63"/>
<path d="M571.844 250.641H579.665" stroke="#CD9E63"/>
<path d="M564.02 250.641H571.84" stroke="#CD9E63"/>
<path d="M556.199 250.641H564.02" stroke="#CD9E63"/>
<path d="M548.379 250.641H556.2" stroke="#CD9E63"/>
<path d="M540.559 250.641H548.38" stroke="#CD9E63"/>
<path d="M532.738 250.641H540.559" stroke="#CD9E63"/>
<path d="M532.738 250.641L536.167 247.212" stroke="#CD9E63"/>
<path d="M532.738 250.641L536.167 254.07" stroke="#CD9E63"/>
<path d="M583.371 162.612V165.357" stroke="#CD9E63"/>
<path d="M583.371 165.357H587.484" stroke="#CD9E63"/>
<path d="M587.484 165.357V162.612" stroke="#CD9E63"/>
<path d="M583.371 187.587V231.84" stroke="#CD9E63"/>
<path d="M587.484 235.962V187.587" stroke="#CD9E63"/>
<path d="M587.484 187.587H583.371" stroke="#CD9E63"/>
<path d="M583.371 231.84H527.652" stroke="#CD9E63"/>
<path d="M531.773 235.962H587.483" stroke="#CD9E63"/>
<path d="M527.652 231.84V266.148" stroke="#CD9E63"/>
<path d="M531.773 266.148V235.962" stroke="#CD9E63"/>
<path d="M561.141 165.357L561.303 168.03L561.789 170.676L562.581 173.241L563.688 175.689L565.074 177.984L566.73 180.099L568.629 181.998L570.744 183.645L573.039 185.04L575.487 186.138L578.052 186.939L580.689 187.425L583.371 187.587" stroke="#CD9E63"/>
<path d="M583.371 165.357H561.141" stroke="#CD9E63"/>
<path d="M630.295 371.961H450.07" stroke="#CD9E63" stroke-width="2"/>
<path d="M450.07 371.961V278.496" stroke="#CD9E63" stroke-width="2"/>
<path d="M255.492 213.588H402.597" stroke="#CD9E63" stroke-width="2"/>
<path d="M255.492 327.762V213.588" stroke="#CD9E63" stroke-width="2"/>
<path d="M402.598 213.588V327.762" stroke="#CD9E63" stroke-width="2"/>
<path d="M402.597 327.762H255.492" stroke="#CD9E63" stroke-width="2"/>
<path d="M630.964 540L402.598 327.762" stroke="#CD9E63" stroke-width="2"/>
<path d="M533.916 449.802H128.07" stroke="#CD9E63" stroke-width="2"/>
<path d="M630.295 371.961L533.914 449.802" stroke="#CD9E63" stroke-width="2"/>
<path d="M33.9023 540L255.491 327.762" stroke="#CD9E63" stroke-width="2"/>
<path d="M128.07 449.802V99.522" stroke="#CD9E63" stroke-width="2"/>
<path d="M16.8945 0L255.494 213.588" stroke="#CD9E63" stroke-width="2"/>
<path d="M128.07 99.522H606.321" stroke="#CD9E63" stroke-width="2"/>
<path d="M630.296 156.438L606.32 99.522" stroke="#CD9E63" stroke-width="2"/>
<path d="M703.106 0L606.32 99.522" stroke="#CD9E63" stroke-width="2"/>
<path d="M402.598 213.588L450.073 150.264" stroke="#CD9E63" stroke-width="2"/>
<path d="M630.297 371.961V278.496" stroke="#CD9E63" stroke-width="2"/>
<path d="M532.738 250.641L536.23 247.149" stroke="#CD9E63"/>
<path d="M532.738 250.641L536.23 254.133" stroke="#CD9E63"/>
</g>
<defs>
<clipPath id="clip0_746_521">
<rect width="720" height="540" fill="white"/>
</clipPath>
</defs>
</svg>
