<svg width="31" height="24" viewBox="0 0 31 24" fill="none" xmlns="http://www.w3.org/2000/svg">
<path d="M30.0055 17.1192L25.7555 2.96922C25.6738 2.68303 25.5277 2.41934 25.3284 2.19834C25.129 1.97734 24.8818 1.8049 24.6055 1.69422H24.5305L24.6055 1.66922C23.211 1.11046 21.7671 0.683599 20.293 0.394224C20.1641 0.368753 20.0315 0.36892 19.9027 0.394715C19.7739 0.420509 19.6515 0.471426 19.5423 0.544556C19.4332 0.617686 19.3396 0.711597 19.2668 0.820924C19.194 0.930251 19.1434 1.05285 19.118 1.18172C19.0906 1.30984 19.0891 1.44211 19.1133 1.57084C19.1376 1.69957 19.1873 1.82218 19.2594 1.93153C19.3315 2.04089 19.4247 2.1348 19.5335 2.2078C19.6422 2.28079 19.7644 2.33142 19.893 2.35672C20.4555 2.46922 21.0055 2.60672 21.543 2.75672C21.741 2.85949 21.8989 3.02549 21.9917 3.22833C22.0844 3.43118 22.1067 3.65922 22.055 3.87619C22.0033 4.09317 21.8805 4.28662 21.7062 4.42578C21.5319 4.56495 21.316 4.64184 21.093 4.64422H20.993C19.0667 4.14186 17.0837 3.88978 15.093 3.89422C13.149 3.88843 11.2124 4.13208 9.33048 4.61922C9.09101 4.68241 8.8366 4.65448 8.61654 4.54085C8.39648 4.42721 8.22642 4.23596 8.13929 4.00413C8.05215 3.77229 8.05415 3.51637 8.14489 3.28592C8.23564 3.05548 8.40867 2.86691 8.63048 2.75672H8.64298C9.18048 2.60672 9.73048 2.46922 10.293 2.35672C10.4218 2.3313 10.5445 2.28074 10.6538 2.20793C10.7631 2.13512 10.857 2.04148 10.9301 1.93237C11.0033 1.82325 11.0542 1.7008 11.08 1.572C11.1058 1.4432 11.1059 1.31059 11.0805 1.18172C11.0262 0.923071 10.8728 0.695914 10.6533 0.54877C10.4337 0.401627 10.1654 0.346162 9.90548 0.394224C8.42601 0.690071 6.97788 1.12535 5.58048 1.69422C5.3042 1.8049 5.05693 1.97734 4.85759 2.19834C4.65826 2.41934 4.51216 2.68303 4.43048 2.96922L0.180478 17.1192C0.070223 17.4892 0.0693872 17.8831 0.178071 18.2535C0.286756 18.624 0.500315 18.955 0.792978 19.2067C0.907968 19.3175 1.02899 19.4218 1.15548 19.5192H1.16798C3.19298 21.1692 5.85548 22.4317 8.85548 23.1567C8.93226 23.1813 9.01236 23.194 9.09298 23.1942C9.34022 23.1981 9.58014 23.1103 9.76643 22.9477C9.95271 22.7851 10.0721 22.5592 10.1017 22.3137C10.1312 22.0682 10.0687 21.8205 9.92629 21.6184C9.78386 21.4162 9.5716 21.274 9.33048 21.2192C7.98179 20.8934 6.67059 20.4284 5.41798 19.8317V19.8317C5.24654 19.6711 5.13713 19.4552 5.10895 19.222C5.08077 18.9887 5.13561 18.753 5.26387 18.5561C5.39212 18.3593 5.58559 18.2139 5.81033 18.1454C6.03508 18.0769 6.27676 18.0898 6.49298 18.1817C8.86798 19.2317 11.8555 19.8942 15.093 19.8942C18.3305 19.8942 21.318 19.2317 23.693 18.1817C23.9092 18.0898 24.1509 18.0769 24.3756 18.1454C24.6004 18.2139 24.7938 18.3593 24.9221 18.5561C25.0503 18.753 25.1052 18.9887 25.077 19.222C25.0488 19.4552 24.9394 19.6711 24.768 19.8317C23.5154 20.4284 22.2042 20.8934 20.8555 21.2192C20.6144 21.274 20.4021 21.4162 20.2597 21.6184C20.1172 21.8205 20.0548 22.0682 20.0843 22.3137C20.1138 22.5592 20.2332 22.7851 20.4195 22.9477C20.6058 23.1103 20.8457 23.1981 21.093 23.1942C21.1736 23.194 21.2537 23.1813 21.3305 23.1567C24.3305 22.4317 26.993 21.1692 29.018 19.5192H29.0305C29.157 19.4218 29.278 19.3175 29.393 19.2067C29.6856 18.955 29.8992 18.624 30.0079 18.2535C30.1166 17.8831 30.1157 17.4892 30.0055 17.1192V17.1192ZM11.093 15.3942C10.7963 15.3942 10.5063 15.3062 10.2596 15.1414C10.0129 14.9766 9.82069 14.7423 9.70716 14.4682C9.59363 14.1942 9.56392 13.8926 9.6218 13.6016C9.67968 13.3106 9.82254 13.0433 10.0323 12.8336C10.2421 12.6238 10.5094 12.4809 10.8003 12.423C11.0913 12.3652 11.3929 12.3949 11.667 12.5084C11.9411 12.6219 12.1754 12.8142 12.3402 13.0609C12.505 13.3075 12.593 13.5976 12.593 13.8942C12.593 14.292 12.4349 14.6736 12.1536 14.9549C11.8723 15.2362 11.4908 15.3942 11.093 15.3942ZM19.093 15.3942C18.7963 15.3942 18.5063 15.3062 18.2596 15.1414C18.0129 14.9766 17.8207 14.7423 17.7072 14.4682C17.5936 14.1942 17.5639 13.8926 17.6218 13.6016C17.6797 13.3106 17.8225 13.0433 18.0323 12.8336C18.2421 12.6238 18.5094 12.4809 18.8003 12.423C19.0913 12.3652 19.3929 12.3949 19.667 12.5084C19.9411 12.6219 20.1754 12.8142 20.3402 13.0609C20.505 13.3075 20.593 13.5976 20.593 13.8942C20.593 14.292 20.4349 14.6736 20.1536 14.9549C19.8723 15.2362 19.4908 15.3942 19.093 15.3942Z" fill="#F3F3F3"/>
</svg>
