<svg width="328" height="328" viewBox="0 0 328 328" fill="none" xmlns="http://www.w3.org/2000/svg">
<g clip-path="url(#clip0_772_599)">
<circle cx="171" cy="171" r="156" stroke="black" stroke-width="2"/>
<line x1="176.499" y1="-32.9255" x2="174.499" y2="61.0744" stroke="#CDB890" stroke-width="7"/>
<line x1="86.4306" y1="-11.6934" x2="105.431" y2="82.3066" stroke="#CDB890" stroke-width="7"/>
<line x1="32.8607" y1="6.98345" x2="75.8607" y2="67.9834" stroke="#CDB890" stroke-width="7"/>
<line x1="4.9923" y1="79.5115" x2="64.9923" y2="119.512" stroke="#CDB890" stroke-width="18"/>
<line x1="-0.596411" y1="249.624" x2="59.4036" y2="223.624" stroke="#CDB890" stroke-width="3"/>
<ellipse cx="35.5" cy="101" rx="21.5" ry="14" fill="#CDB890"/>
<path d="M25.0151 109.405C27.7007 106.87 29.79 104.737 31.2832 103.008C32.7764 101.278 33.8506 99.7046 34.5059 98.2866C35.1719 96.8687 35.5049 95.4238 35.5049 93.9521C35.5049 91.1592 34.5811 89.7627 32.7334 89.7627C31.7236 89.7627 30.9717 90.2085 30.4775 91.1001C29.9941 91.9917 29.7524 93.4312 29.7524 95.4185C29.7524 96.0737 29.7739 96.7075 29.8169 97.3198L25.0957 96.7881C25.0742 96.2939 25.0635 95.9341 25.0635 95.7085C25.0635 93.1411 25.7134 91.2183 27.0132 89.9399C28.3237 88.6509 30.3057 88.0063 32.959 88.0063C35.333 88.0063 37.1431 88.5381 38.3892 89.6016C39.6353 90.665 40.2583 92.2119 40.2583 94.2422C40.2583 95.7246 39.9146 97.0996 39.2271 98.3672C38.5396 99.6348 37.4653 100.929 36.0044 102.25C34.5435 103.572 32.5454 105.092 30.0103 106.811L30.0586 107.068C31.0039 107.004 31.9976 106.972 33.0396 106.972H40.2422V111H25.0151V109.405Z" fill="#131313"/>
<ellipse cx="67.2544" cy="54.7011" rx="10.5" ry="21.5" transform="rotate(-7.60906 67.2544 54.7011)" fill="#CDB890"/>
<path d="M68.2466 66.635C65.4106 66.635 63.2837 65.9851 61.8657 64.6853C60.4478 63.3855 59.7227 61.3875 59.6904 58.6912L64.7178 58.095C64.7178 59.7815 64.8413 61.1243 65.0884 62.1233C65.3462 63.1223 65.7275 63.8474 66.2324 64.2986C66.748 64.739 67.4141 64.9592 68.2305 64.9592C69.2617 64.9592 70.0244 64.6155 70.5186 63.928C71.0127 63.2297 71.2598 62.1448 71.2598 60.6731V59.6741C71.2598 58.1702 70.9858 57.0852 70.438 56.4192C69.8901 55.7532 69.1167 55.4041 68.1177 55.3718L66.2163 55.2913V53.7927L68.0532 53.7122C69.0093 53.6799 69.729 53.3684 70.2124 52.7776C70.6958 52.176 70.9375 51.2307 70.9375 49.9417V48.9426C70.9375 47.5569 70.6904 46.5364 70.1963 45.8811C69.7021 45.2151 68.9663 44.8821 67.9888 44.8821C67.2368 44.8821 66.6353 45.0916 66.1841 45.5105C65.7329 45.9294 65.3999 46.6169 65.1851 47.573C64.981 48.5183 64.8789 49.802 64.8789 51.4241L60.0933 50.8923C60.061 48.282 60.7163 46.3484 62.0591 45.0916C63.4019 43.8347 65.4482 43.2063 68.1982 43.2063C70.6904 43.2063 72.5649 43.7004 73.8218 44.6887C75.0894 45.677 75.7231 47.1433 75.7231 49.0876V49.1521C75.7231 50.6345 75.3364 51.8054 74.563 52.6648C73.8003 53.5134 72.6133 54.072 71.002 54.3406V54.6628C72.8389 54.9314 74.187 55.5168 75.0464 56.4192C75.9165 57.3108 76.3516 58.5515 76.3516 60.1414V60.2058C76.3516 62.322 75.6694 63.9226 74.3052 65.0076C72.9409 66.0925 70.9214 66.635 68.2466 66.635Z" fill="#131313"/>
<ellipse cx="66.2544" cy="50.7011" rx="10.5" ry="21.5" transform="rotate(-7.60906 66.2544 50.7011)" fill="#CDB890"/>
<path d="M67.2466 62.635C64.4106 62.635 62.2837 61.9851 60.8657 60.6853C59.4478 59.3855 58.7227 57.3875 58.6904 54.6912L63.7178 54.095C63.7178 55.7815 63.8413 57.1243 64.0884 58.1233C64.3462 59.1223 64.7275 59.8474 65.2324 60.2986C65.748 60.739 66.4141 60.9592 67.2305 60.9592C68.2617 60.9592 69.0244 60.6155 69.5186 59.928C70.0127 59.2297 70.2598 58.1448 70.2598 56.6731V55.6741C70.2598 54.1702 69.9858 53.0852 69.438 52.4192C68.8901 51.7532 68.1167 51.4041 67.1177 51.3718L65.2163 51.2913V49.7927L67.0532 49.7122C68.0093 49.6799 68.729 49.3684 69.2124 48.7776C69.6958 48.176 69.9375 47.2307 69.9375 45.9417V44.9426C69.9375 43.5569 69.6904 42.5364 69.1963 41.8811C68.7021 41.2151 67.9663 40.8821 66.9888 40.8821C66.2368 40.8821 65.6353 41.0916 65.1841 41.5105C64.7329 41.9294 64.3999 42.6169 64.1851 43.573C63.981 44.5183 63.8789 45.802 63.8789 47.4241L59.0933 46.8923C59.061 44.282 59.7163 42.3484 61.0591 41.0916C62.4019 39.8347 64.4482 39.2063 67.1982 39.2063C69.6904 39.2063 71.5649 39.7004 72.8218 40.6887C74.0894 41.677 74.7231 43.1433 74.7231 45.0876V45.1521C74.7231 46.6345 74.3364 47.8054 73.563 48.6648C72.8003 49.5134 71.6133 50.072 70.002 50.3406V50.6628C71.8389 50.9314 73.187 51.5168 74.0464 52.4192C74.9165 53.3108 75.3516 54.5515 75.3516 56.1414V56.2058C75.3516 58.322 74.6694 59.9226 73.3052 61.0076C71.9409 62.0925 69.9214 62.635 67.2466 62.635Z" fill="#131313"/>
<ellipse cx="101.5" cy="32" rx="9.5" ry="22" fill="#CDB890"/>
<path d="M107.066 40H102.135V34.4087H92.6123V33.0229L102.071 17.4414H107.066V32.749H109.531V34.4087H107.066V40ZM94.9165 32.749H102.135V24.5151C102.135 23.2583 102.173 22.1035 102.248 21.0508L101.926 21.0186C101.475 21.9102 100.873 22.9736 100.121 24.209L94.9165 32.749Z" fill="#131313"/>
<ellipse cx="172.5" cy="18.5" rx="10.5" ry="21.5" fill="#CDB890"/>
<path d="M171.249 24.4351C168.606 24.4351 166.603 23.9302 165.239 22.9204C163.875 21.8999 163.144 20.3638 163.047 18.312L167.978 17.7319C168.085 19.4399 168.408 20.7021 168.945 21.5186C169.482 22.3242 170.255 22.7271 171.265 22.7271C173.424 22.7271 174.504 21.0835 174.504 17.7964V17.7319C174.504 16.0132 174.144 14.7241 173.424 13.8647C172.705 13.0054 171.641 12.5757 170.234 12.5757C169.213 12.5757 168.322 12.7959 167.559 13.2363C166.807 13.6768 166.195 14.332 165.722 15.2021L163.595 15.0571L164.079 1.44141H178.613V5.46973H166.173L165.851 12.9141C166.592 11.8398 167.495 11.0396 168.558 10.5132C169.622 9.97607 170.868 9.70752 172.296 9.70752C174.638 9.70752 176.427 10.3091 177.662 11.5122C178.908 12.7153 179.531 14.4824 179.531 16.8135V16.8779C179.531 21.916 176.771 24.4351 171.249 24.4351Z" fill="#131313"/>
<ellipse cx="23.5" cy="224.5" rx="9.5" ry="13.5" fill="#CDB890"/>
<path d="M22.7524 235V219.032H17.5479V217.565C19.5459 217.479 21.0767 217.286 22.1401 216.985C23.2144 216.674 24.02 216.174 24.5571 215.487C25.105 214.799 25.5186 213.784 25.7979 212.441H27.6831V235H22.7524Z" fill="#1B1B1B"/>
</g>
<defs>
<clipPath id="clip0_772_599">
<rect width="328" height="328" fill="white"/>
</clipPath>
</defs>
</svg>
