<svg width="442" height="286" viewBox="0 0 442 286" fill="none" xmlns="http://www.w3.org/2000/svg">
<path d="M220.89 1.35126L21.6606 285" stroke="black"/>
<path d="M220.621 0.999942L419.851 284.649" stroke="black"/>
<line x1="21.6602" y1="284.5" x2="420.369" y2="284.5" stroke="black"/>
<path d="M57.1211 234.5H384.91" stroke="black" stroke-width="0.5"/>
<path d="M92.1484 184.5H349.45" stroke="black" stroke-width="0.5"/>
<path d="M127.607 134.5H314.421" stroke="black" stroke-width="0.5"/>
<path d="M162.203 84.5H279.394" stroke="black" stroke-width="0.5"/>
<path d="M179.496 127V111.961H178.014V127H179.496ZM189.819 123.455C189.583 125.464 188.466 126.463 186.736 126.463C184.513 126.463 183.492 124.927 183.492 121.414V121.178H190.432C190.475 120.866 190.485 120.598 190.485 120.286C190.485 117.268 189.035 115.495 186.403 115.495C183.546 115.495 181.999 117.493 181.999 121.178V121.511C181.999 125.195 183.557 127.226 186.489 127.226C188.745 127.226 190.249 125.958 190.561 123.627L189.819 123.455ZM186.393 116.032C188.111 116.032 188.992 117.3 188.992 120.308V120.533H183.503C183.578 117.429 184.556 116.032 186.393 116.032ZM195.728 124.744C193.987 124.519 193.311 124.121 193.311 123.391C193.311 122.886 193.697 122.467 194.6 122.316C195.115 122.531 195.738 122.639 196.458 122.639C198.854 122.639 200.164 121.403 200.164 119.072C200.164 117.515 199.584 116.451 198.478 115.914C198.381 114.797 198.907 114.528 200.97 114.313L200.637 112.885C198.596 113.067 197.887 114.206 198.112 115.753C197.64 115.592 197.081 115.506 196.458 115.506C194.041 115.506 192.72 116.741 192.72 119.072C192.72 120.437 193.171 121.414 194.02 122.005V122.166C192.967 122.381 192.258 122.972 192.258 123.896C192.258 124.862 192.956 125.475 194.009 125.808V125.969C192.612 126.323 191.882 127 191.882 128.311C191.882 130.051 193.396 130.975 196.415 130.975C199.552 130.975 201.013 129.933 201.013 127.795C201.013 125.561 199.197 125.185 197.468 124.959L195.728 124.744ZM196.458 116.011C197.951 116.011 198.649 116.945 198.649 119.072C198.649 121.199 197.951 122.123 196.458 122.123C194.943 122.123 194.234 121.199 194.234 119.072C194.234 116.945 194.943 116.011 196.458 116.011ZM196.447 130.384C194.127 130.384 193.128 129.61 193.128 128.085C193.128 126.989 193.547 126.377 194.771 126.001C194.954 126.033 195.137 126.065 195.33 126.087L197.06 126.291C198.789 126.495 199.863 126.785 199.863 128.149C199.863 129.686 198.811 130.384 196.447 130.384ZM209.8 123.455C209.563 125.464 208.446 126.463 206.717 126.463C204.493 126.463 203.473 124.927 203.473 121.414V121.178H210.412C210.455 120.866 210.466 120.598 210.466 120.286C210.466 117.268 209.016 115.495 206.384 115.495C203.526 115.495 201.979 117.493 201.979 121.178V121.511C201.979 125.195 203.537 127.226 206.47 127.226C208.726 127.226 210.229 125.958 210.541 123.627L209.8 123.455ZM206.373 116.032C208.092 116.032 208.973 117.3 208.973 120.308V120.533H203.483C203.559 117.429 204.536 116.032 206.373 116.032ZM214.516 127V120.995C214.516 118.6 215.805 116.258 217.803 116.258C218.898 116.258 219.575 116.999 219.575 118.632V127H221.058V118.503C221.058 116.494 220.048 115.517 218.243 115.517C216.503 115.517 215.01 116.623 214.312 119.352L214.086 119.298C214.44 117.45 214.569 116.483 214.602 115.721H213.022V127H214.516ZM227.374 127.204C229.114 127.204 230.339 126.098 230.865 123.691L231.091 123.745C230.812 125.249 230.661 126.355 230.64 127H232.187V111.961H230.704V115.194C230.704 116.118 230.822 117.332 231.091 118.976L230.865 119.029C230.371 116.666 229.146 115.517 227.374 115.517C224.86 115.517 223.507 117.547 223.507 121.274V121.436C223.507 125.163 224.86 127.204 227.374 127.204ZM227.729 126.56C225.924 126.56 225.043 124.927 225.043 121.564V121.167C225.043 117.783 225.924 116.15 227.729 116.15C229.619 116.15 230.704 118.138 230.704 121.231V121.489C230.704 124.572 229.619 126.56 227.729 126.56ZM237.364 127.226C239.19 127.226 240.512 126.087 241.103 123.96L241.328 124.014C240.845 126.28 241.135 127.226 242.499 127.226C242.982 127.226 243.38 127.032 243.627 126.71L243.691 126.205C242.854 126.549 242.435 126.388 242.435 125.432V118.954C242.435 116.677 241.253 115.495 238.793 115.495C236.183 115.495 234.808 116.924 234.915 119.448L236.419 119.846C236.269 117.192 236.988 116.032 238.761 116.032C240.286 116.032 240.952 116.881 240.952 118.9V120.404L238.653 121.049C236.344 121.693 234.732 122.671 234.732 124.69V124.755C234.732 126.291 235.71 127.226 237.364 127.226ZM237.934 126.355C236.902 126.355 236.269 125.668 236.269 124.562V124.497C236.269 122.896 237.504 121.994 239.233 121.489L240.952 120.984V122.381C240.952 124.615 239.685 126.355 237.934 126.355ZM247.172 127V121.564C247.172 118.127 248.117 116.935 251.297 116.816L250.942 115.409C248.88 115.656 247.548 116.773 246.946 119.695L246.721 119.631C247.14 117.386 247.236 116.569 247.258 115.721H245.679V127H247.172ZM252.747 130.975C255.282 130.631 256.142 129.847 257.119 126.893L260.814 115.721H260.009L257.968 122.134C257.656 123.122 257.388 124.024 257.055 125.195H256.84C256.571 124.024 256.313 123.111 255.991 122.134L253.864 115.721H252.264L256.26 127.161L255.98 127.978C255.69 128.805 255.325 129.245 253.875 129.363L252.414 129.481L252.747 130.975Z" fill="black"/>
<path d="M209.329 174.455C209.093 176.464 207.976 177.463 206.246 177.463C204.022 177.463 203.002 175.927 203.002 172.414V172.178H209.941C209.984 171.866 209.995 171.598 209.995 171.286C209.995 168.268 208.545 166.495 205.913 166.495C203.056 166.495 201.509 168.493 201.509 172.178V172.511C201.509 176.195 203.066 178.226 205.999 178.226C208.255 178.226 209.759 176.958 210.07 174.627L209.329 174.455ZM205.902 167.032C207.621 167.032 208.502 168.3 208.502 171.308V171.533H203.013C203.088 168.429 204.065 167.032 205.902 167.032ZM217.364 166.517C215.624 166.517 214.399 167.623 213.873 170.029L213.647 169.976C213.927 168.472 214.077 167.365 214.099 166.721H212.552V181.76H214.045V178.526C214.045 177.603 213.916 176.389 213.647 174.745L213.873 174.691C214.367 177.055 215.592 178.204 217.364 178.204C219.878 178.204 221.242 176.163 221.242 172.436V172.274C221.242 168.547 219.878 166.517 217.364 166.517ZM217.01 167.161C218.814 167.161 219.706 168.794 219.706 172.156V172.554C219.706 175.938 218.814 177.57 217.01 177.57C215.119 177.57 214.045 175.583 214.045 172.489V172.231C214.045 169.148 215.119 167.161 217.01 167.161ZM225.41 165.013V163.24H223.541V165.013H225.41ZM225.217 178V166.721H223.734V178H225.217ZM232.167 178.226C234.434 178.226 235.884 176.851 236.26 174.294L235.497 174.122C235.207 176.346 234.154 177.452 232.425 177.452C230.233 177.452 229.256 175.83 229.256 172.188V172.027C229.256 168.536 230.158 167.032 232.038 167.032C233.671 167.032 234.423 168.096 234.595 170.824V170.953L236.099 170.577C235.787 167.978 234.444 166.495 232.081 166.495C229.342 166.495 227.72 168.536 227.72 172.221V172.274C227.72 176.131 229.267 178.226 232.167 178.226Z" fill="black"/>
<path d="M203.496 229V223.564C203.496 220.127 204.441 218.935 207.621 218.816L207.267 217.409C205.204 217.656 203.872 218.773 203.271 221.695L203.045 221.631C203.464 219.386 203.561 218.569 203.582 217.721H202.003V229H203.496ZM211.563 229.226C213.39 229.226 214.711 228.087 215.302 225.96L215.527 226.014C215.044 228.28 215.334 229.226 216.698 229.226C217.182 229.226 217.579 229.032 217.826 228.71L217.891 228.205C217.053 228.549 216.634 228.388 216.634 227.432V220.954C216.634 218.677 215.452 217.495 212.992 217.495C210.382 217.495 209.007 218.924 209.114 221.448L210.618 221.846C210.468 219.192 211.188 218.032 212.96 218.032C214.485 218.032 215.151 218.881 215.151 220.9V222.404L212.853 223.049C210.543 223.693 208.932 224.671 208.932 226.69V226.755C208.932 228.291 209.909 229.226 211.563 229.226ZM212.133 228.355C211.102 228.355 210.468 227.668 210.468 226.562V226.497C210.468 224.896 211.703 223.994 213.433 223.489L215.151 222.984V224.381C215.151 226.615 213.884 228.355 212.133 228.355ZM221.371 229V223.564C221.371 220.127 222.316 218.935 225.496 218.816L225.142 217.409C223.079 217.656 221.747 218.773 221.146 221.695L220.92 221.631C221.339 219.386 221.436 218.569 221.457 217.721H219.878V229H221.371ZM234.487 225.455C234.251 227.464 233.134 228.463 231.404 228.463C229.181 228.463 228.16 226.927 228.16 223.414V223.178H235.1C235.143 222.866 235.153 222.598 235.153 222.286C235.153 219.268 233.703 217.495 231.071 217.495C228.214 217.495 226.667 219.493 226.667 223.178V223.511C226.667 227.195 228.225 229.226 231.157 229.226C233.413 229.226 234.917 227.958 235.229 225.627L234.487 225.455ZM231.061 218.032C232.779 218.032 233.66 219.3 233.66 222.308V222.533H228.171C228.246 219.429 229.224 218.032 231.061 218.032Z" fill="black"/>
<path d="M185.956 279.226C188.223 279.226 189.673 277.851 190.049 275.294L189.286 275.122C188.996 277.346 187.943 278.452 186.214 278.452C184.022 278.452 183.045 276.83 183.045 273.188V273.027C183.045 269.536 183.947 268.032 185.827 268.032C187.46 268.032 188.212 269.096 188.384 271.824V271.953L189.888 271.577C189.576 268.978 188.233 267.495 185.87 267.495C183.131 267.495 181.509 269.536 181.509 273.221V273.274C181.509 277.131 183.056 279.226 185.956 279.226ZM196.344 279.226C199.147 279.226 200.705 277.131 200.705 273.479V273.242C200.705 269.579 199.147 267.495 196.344 267.495C193.54 267.495 191.993 269.579 191.993 273.242V273.479C191.993 277.131 193.54 279.226 196.344 279.226ZM196.344 278.678C194.453 278.678 193.54 277.217 193.54 273.736V272.984C193.54 269.493 194.453 268.032 196.344 268.032C198.234 268.032 199.147 269.493 199.147 272.984V273.736C199.147 277.217 198.234 278.678 196.344 278.678ZM204.68 279V273.188C204.68 270.331 205.818 268.258 207.473 268.258C208.493 268.258 209.062 269.01 209.062 270.524V279H210.545V273.103C210.545 270.46 211.533 268.279 213.252 268.279C214.369 268.279 214.906 268.945 214.906 270.492V279H216.399V270.374C216.399 268.408 215.497 267.517 213.811 267.517C212.167 267.517 210.856 268.559 210.33 271.33L210.115 271.276C210.556 268.58 209.75 267.517 207.956 267.517C206.345 267.517 205.077 268.516 204.476 271.352L204.25 271.298C204.604 269.418 204.733 268.494 204.766 267.721H203.187V279H204.68ZM220.814 279V273.188C220.814 270.331 221.953 268.258 223.607 268.258C224.628 268.258 225.197 269.01 225.197 270.524V279H226.68V273.103C226.68 270.46 227.668 268.279 229.387 268.279C230.504 268.279 231.041 268.945 231.041 270.492V279H232.534V270.374C232.534 268.408 231.632 267.517 229.945 267.517C228.302 267.517 226.991 268.559 226.465 271.33L226.25 271.276C226.69 268.58 225.885 267.517 224.091 267.517C222.479 267.517 221.212 268.516 220.61 271.352L220.385 271.298C220.739 269.418 220.868 268.494 220.9 267.721H219.321V279H220.814ZM239.312 279.226C242.116 279.226 243.674 277.131 243.674 273.479V273.242C243.674 269.579 242.116 267.495 239.312 267.495C236.509 267.495 234.962 269.579 234.962 273.242V273.479C234.962 277.131 236.509 279.226 239.312 279.226ZM239.312 278.678C237.422 278.678 236.509 277.217 236.509 273.736V272.984C236.509 269.493 237.422 268.032 239.312 268.032C241.203 268.032 242.116 269.493 242.116 272.984V273.736C242.116 277.217 241.203 278.678 239.312 278.678ZM247.648 279V272.995C247.648 270.6 248.938 268.258 250.936 268.258C252.031 268.258 252.708 268.999 252.708 270.632V279H254.19V270.503C254.19 268.494 253.181 267.517 251.376 267.517C249.636 267.517 248.143 268.623 247.444 271.352L247.219 271.298C247.573 269.45 247.702 268.483 247.734 267.721H246.155V279H247.648Z" fill="black"/>
<path d="M192.496 72V66.1885C192.496 63.3311 193.635 61.2578 195.289 61.2578C196.31 61.2578 196.879 62.0098 196.879 63.5244V72H198.361V66.1025C198.361 63.46 199.35 61.2793 201.068 61.2793C202.186 61.2793 202.723 61.9453 202.723 63.4922V72H204.216V63.374C204.216 61.4082 203.313 60.5166 201.627 60.5166C199.983 60.5166 198.673 61.5586 198.146 64.3301L197.932 64.2764C198.372 61.5801 197.566 60.5166 195.772 60.5166C194.161 60.5166 192.894 61.5156 192.292 64.3516L192.066 64.2979C192.421 62.418 192.55 61.4941 192.582 60.7207H191.003V72H192.496ZM206.171 75.9746C208.706 75.6309 209.565 74.8467 210.543 71.8926L214.238 60.7207H213.433L211.392 67.1338C211.08 68.1221 210.812 69.0244 210.479 70.1953H210.264C209.995 69.0244 209.737 68.1113 209.415 67.1338L207.288 60.7207H205.688L209.684 72.1611L209.404 72.9775C209.114 73.8047 208.749 74.2451 207.299 74.3633L205.838 74.4814L206.171 75.9746ZM219.438 72.2148C220.383 72.2148 221.307 71.8281 221.833 71.1191L221.769 70.5498C221.264 71.0332 220.608 71.3125 219.964 71.3125C218.943 71.3125 218.406 70.8721 218.406 69.4971V61.3652H221.887V60.7207H218.406V57.3691L216.913 58.0781V60.7207H215.13V61.3652H216.913V69.6475C216.913 71.3447 217.815 72.2148 219.438 72.2148ZM225.432 72V65.9951C225.432 63.5996 226.731 61.2578 228.719 61.2578C229.825 61.2578 230.491 61.9883 230.491 63.6318V72H231.984V63.5029C231.984 61.4941 230.975 60.5166 229.17 60.5166C227.43 60.5166 225.926 61.623 225.238 64.3516L225.013 64.2979C225.346 62.4502 225.432 61.4727 225.432 60.624V56.9609H223.949V72H225.432ZM236.604 59.0127V57.2402H234.734V59.0127H236.604ZM236.41 72V60.7207H234.928V72H236.41ZM243.36 72.2256C245.627 72.2256 247.077 70.8506 247.453 68.2939L246.69 68.1221C246.4 70.3457 245.348 71.4521 243.618 71.4521C241.427 71.4521 240.449 69.8301 240.449 66.1885V66.0273C240.449 62.5361 241.352 61.0322 243.231 61.0322C244.864 61.0322 245.616 62.0957 245.788 64.8242V64.9531L247.292 64.5771C246.98 61.9775 245.638 60.4951 243.274 60.4951C240.535 60.4951 238.913 62.5361 238.913 66.2207V66.2744C238.913 70.1309 240.46 72.2256 243.36 72.2256Z" fill="black"/>
<path d="M222.387 49V29.8594H221.088C220.514 33.4414 219.488 34.0703 214.512 34.2344V35.2734H218.996V49H222.387Z" fill="black"/>
<path d="M214.115 107V87.8594H212.816C212.242 91.4414 211.217 92.0703 206.24 92.2344V93.2734H210.725V107H214.115ZM224.082 107.342C228.799 107.342 231.232 103.965 231.232 97.457V97.4023C231.232 90.9082 228.799 87.5176 224.082 87.5176C219.365 87.5176 216.918 90.9082 216.918 97.4023V97.457C216.918 103.965 219.365 107.342 224.082 107.342ZM224.082 106.125C221.58 106.125 220.418 103.883 220.418 99.043V95.8164C220.418 90.9629 221.58 88.748 224.082 88.748C226.584 88.748 227.732 90.9629 227.732 95.8164V99.043C227.732 103.883 226.584 106.125 224.082 106.125Z" fill="black"/>
<path d="M205.344 158V138.859H204.045C203.471 142.441 202.445 143.07 197.469 143.234V144.273H201.953V158H205.344ZM215.311 158.342C220.027 158.342 222.461 154.965 222.461 148.457V148.402C222.461 141.908 220.027 138.518 215.311 138.518C210.594 138.518 208.146 141.908 208.146 148.402V148.457C208.146 154.965 210.594 158.342 215.311 158.342ZM215.311 157.125C212.809 157.125 211.646 154.883 211.646 150.043V146.816C211.646 141.963 212.809 139.748 215.311 139.748C217.812 139.748 218.961 141.963 218.961 146.816V150.043C218.961 154.883 217.812 157.125 215.311 157.125ZM231.854 158.342C236.57 158.342 239.004 154.965 239.004 148.457V148.402C239.004 141.908 236.57 138.518 231.854 138.518C227.137 138.518 224.689 141.908 224.689 148.402V148.457C224.689 154.965 227.137 158.342 231.854 158.342ZM231.854 157.125C229.352 157.125 228.189 154.883 228.189 150.043V146.816C228.189 141.963 229.352 139.748 231.854 139.748C234.355 139.748 235.504 141.963 235.504 146.816V150.043C235.504 154.883 234.355 157.125 231.854 157.125Z" fill="black"/>
<path d="M194.27 211V191.859H192.971C192.396 195.441 191.371 196.07 186.395 196.234V197.273H190.879V211H194.27ZM196.936 215.129C199.902 214.855 201.133 213.461 201.133 210.316V207.336H197.086V211H200.012C199.971 213.092 199.014 214.049 196.785 214.336L196.936 215.129ZM209.842 211.342C214.559 211.342 216.992 207.965 216.992 201.457V201.402C216.992 194.908 214.559 191.518 209.842 191.518C205.125 191.518 202.678 194.908 202.678 201.402V201.457C202.678 207.965 205.125 211.342 209.842 211.342ZM209.842 210.125C207.34 210.125 206.178 207.883 206.178 203.043V199.816C206.178 194.963 207.34 192.748 209.842 192.748C212.344 192.748 213.492 194.963 213.492 199.816V203.043C213.492 207.883 212.344 210.125 209.842 210.125ZM226.385 211.342C231.102 211.342 233.535 207.965 233.535 201.457V201.402C233.535 194.908 231.102 191.518 226.385 191.518C221.668 191.518 219.221 194.908 219.221 201.402V201.457C219.221 207.965 221.668 211.342 226.385 211.342ZM226.385 210.125C223.883 210.125 222.721 207.883 222.721 203.043V199.816C222.721 194.963 223.883 192.748 226.385 192.748C228.887 192.748 230.035 194.963 230.035 199.816V203.043C230.035 207.883 228.887 210.125 226.385 210.125ZM242.928 211.342C247.645 211.342 250.078 207.965 250.078 201.457V201.402C250.078 194.908 247.645 191.518 242.928 191.518C238.211 191.518 235.764 194.908 235.764 201.402V201.457C235.764 207.965 238.211 211.342 242.928 211.342ZM242.928 210.125C240.426 210.125 239.264 207.883 239.264 203.043V199.816C239.264 194.963 240.426 192.748 242.928 192.748C245.43 192.748 246.578 194.963 246.578 199.816V203.043C246.578 207.883 245.43 210.125 242.928 210.125Z" fill="black"/>
<path d="M186.34 259V239.859H185.041C184.467 243.441 183.441 244.07 178.465 244.234V245.273H182.949V259H186.34ZM196.307 259.342C201.023 259.342 203.457 255.965 203.457 249.457V249.402C203.457 242.908 201.023 239.518 196.307 239.518C191.59 239.518 189.143 242.908 189.143 249.402V249.457C189.143 255.965 191.59 259.342 196.307 259.342ZM196.307 258.125C193.805 258.125 192.643 255.883 192.643 251.043V247.816C192.643 242.963 193.805 240.748 196.307 240.748C198.809 240.748 199.957 242.963 199.957 247.816V251.043C199.957 255.883 198.809 258.125 196.307 258.125ZM204.865 263.129C207.832 262.855 209.062 261.461 209.062 258.316V255.336H205.016V259H207.941C207.9 261.092 206.943 262.049 204.715 262.336L204.865 263.129ZM217.771 259.342C222.488 259.342 224.922 255.965 224.922 249.457V249.402C224.922 242.908 222.488 239.518 217.771 239.518C213.055 239.518 210.607 242.908 210.607 249.402V249.457C210.607 255.965 213.055 259.342 217.771 259.342ZM217.771 258.125C215.27 258.125 214.107 255.883 214.107 251.043V247.816C214.107 242.963 215.27 240.748 217.771 240.748C220.273 240.748 221.422 242.963 221.422 247.816V251.043C221.422 255.883 220.273 258.125 217.771 258.125ZM234.314 259.342C239.031 259.342 241.465 255.965 241.465 249.457V249.402C241.465 242.908 239.031 239.518 234.314 239.518C229.598 239.518 227.15 242.908 227.15 249.402V249.457C227.15 255.965 229.598 259.342 234.314 259.342ZM234.314 258.125C231.812 258.125 230.65 255.883 230.65 251.043V247.816C230.65 242.963 231.812 240.748 234.314 240.748C236.816 240.748 237.965 242.963 237.965 247.816V251.043C237.965 255.883 236.816 258.125 234.314 258.125ZM250.857 259.342C255.574 259.342 258.008 255.965 258.008 249.457V249.402C258.008 242.908 255.574 239.518 250.857 239.518C246.141 239.518 243.693 242.908 243.693 249.402V249.457C243.693 255.965 246.141 259.342 250.857 259.342ZM250.857 258.125C248.355 258.125 247.193 255.883 247.193 251.043V247.816C247.193 242.963 248.355 240.748 250.857 240.748C253.359 240.748 254.508 242.963 254.508 247.816V251.043C254.508 255.883 253.359 258.125 250.857 258.125Z" fill="black"/>
</svg>
