<svg width="25" height="25" viewBox="0 0 25 25" fill="none" xmlns="http://www.w3.org/2000/svg">
<path d="M12.5 16.5C14.7091 16.5 16.5 14.7091 16.5 12.5C16.5 10.2909 14.7091 8.5 12.5 8.5C10.2909 8.5 8.5 10.2909 8.5 12.5C8.5 14.7091 10.2909 16.5 12.5 16.5Z" fill="#EFEFEF"/>
<path d="M18 0H7C5.14348 0 3.36301 0.737498 2.05025 2.05025C0.737498 3.36301 0 5.14348 0 7V18C0 19.8565 0.737498 21.637 2.05025 22.9497C3.36301 24.2625 5.14348 25 7 25H18C19.8565 25 21.637 24.2625 22.9497 22.9497C24.2625 21.637 25 19.8565 25 18V7C25 5.14348 24.2625 3.36301 22.9497 2.05025C21.637 0.737498 19.8565 0 18 0V0ZM12.5 18.5C11.3133 18.5 10.1533 18.1481 9.16658 17.4888C8.17988 16.8295 7.41085 15.8925 6.95672 14.7961C6.5026 13.6997 6.38378 12.4933 6.61529 11.3295C6.8468 10.1656 7.41824 9.09647 8.25736 8.25736C9.09647 7.41824 10.1656 6.8468 11.3295 6.61529C12.4933 6.38378 13.6997 6.5026 14.7961 6.95672C15.8925 7.41085 16.8295 8.17988 17.4888 9.16658C18.1481 10.1533 18.5 11.3133 18.5 12.5C18.5 14.0913 17.8679 15.6174 16.7426 16.7426C15.6174 17.8679 14.0913 18.5 12.5 18.5ZM19 7.5C18.7033 7.5 18.4133 7.41203 18.1666 7.2472C17.92 7.08238 17.7277 6.84811 17.6142 6.57403C17.5007 6.29994 17.4709 5.99834 17.5288 5.70736C17.5867 5.41639 17.7296 5.14912 17.9393 4.93934C18.1491 4.72956 18.4164 4.5867 18.7074 4.52882C18.9983 4.47094 19.2999 4.50065 19.574 4.61418C19.8481 4.72771 20.0824 4.91997 20.2472 5.16665C20.412 5.41332 20.5 5.70333 20.5 6C20.5 6.39782 20.342 6.77936 20.0607 7.06066C19.7794 7.34196 19.3978 7.5 19 7.5Z" fill="#EFEFEF"/>
</svg>
