<svg width="85" height="85" viewBox="0 0 85 85" fill="none" xmlns="http://www.w3.org/2000/svg">
<path d="M40.1332 27.5945C39.626 21.6222 33.1282 21.2592 31.1734 26.4271C33.5909 25.412 37.8341 28.339 37.8341 32.2641C39.116 31.5514 40.2201 31.3724 42.4661 31.2129C44.7121 31.3724 45.8162 31.5514 47.0981 32.2641C47.0981 28.339 51.3413 25.412 53.7588 26.4271C51.804 21.2592 45.3062 21.6222 44.799 27.5945L44.2242 27.5607C44.2242 27.5607 46.2698 21.4361 43.6664 14.8039C41.063 8.17178 45.1878 5.32942 46.8107 7.63037C45.5806 4.76348 42.89 5.44727 42.808 8.20597L42.6651 0H42.2671L42.1242 8.20597C42.0422 5.44727 39.3515 4.76348 38.1215 7.63037C39.7444 5.32942 43.8692 8.17178 41.2658 14.8039C38.6624 21.4361 40.708 27.5607 40.708 27.5607L40.1332 27.5945Z" fill="#EFEFEF"/>
<path d="M20.3301 20.6988C19.6208 20.1212 18.8346 19.5062 18.4267 19.2705C16.5686 18.197 14.8762 18.9572 14.8003 20.7898C13.0558 17.9741 16.1617 16.9137 17.7395 18.2101L12.474 12.7767L12.5422 12.6823L12.5218 12.6613L12.5966 12.6072L12.6512 12.5317L12.6723 12.5523L12.7666 12.484L18.1957 17.7537C16.9003 16.1747 17.9599 13.0663 20.7733 14.8122C18.9422 14.8881 18.1826 16.5819 19.2552 18.4415C19.4907 18.8498 20.1053 19.6365 20.6824 20.3464L22.0313 21.659L21.895 21.8011L21.8971 21.8036L21.8381 21.8604L21.7861 21.9145L21.7838 21.9125L21.6418 22.049L20.3301 20.6988Z" fill="#EFEFEF"/>
<path d="M27.5724 40.1652C21.6049 39.6576 21.2421 33.1546 26.4059 31.1982C25.3916 33.6176 28.3162 37.8643 32.2382 37.8643C31.5261 39.1472 31.3473 40.2522 31.1878 42.5001C31.3473 44.748 31.5261 45.853 32.2382 47.1359C28.3162 47.1359 25.3916 51.3825 26.4059 53.8019C21.2421 51.8456 21.6049 45.3425 27.5724 44.8349L27.5386 44.2597C27.5386 44.2597 21.4189 46.3069 14.7921 43.7014C8.16522 41.0959 5.32514 45.2241 7.62425 46.8483C4.75966 45.6172 5.4429 42.9244 8.19938 42.8423L6.85376e-08 42.6993L0 42.3009L8.19938 42.1578C5.4429 42.0758 4.75966 39.3829 7.62425 38.1519C5.32514 39.7761 8.16522 43.9043 14.7921 41.2988C21.4189 38.6933 27.5386 40.7404 27.5386 40.7404L27.5724 40.1652Z" fill="#EFEFEF"/>
<path d="M40.325 44.6421C40.3249 44.6424 40.3249 44.6427 40.3248 44.643L40.3258 44.6429L40.3256 44.643L40.3247 44.6439C40.0599 46.4741 39.6221 47.6375 38.673 48.4044C38.6202 48.447 38.5659 48.4884 38.51 48.5286C37.7827 49.0513 36.7789 49.375 35.3711 49.6015L35.3711 49.6015L35.3702 49.6024L35.3702 49.6024L35.37 49.6026L35.3701 49.6016L35.3692 49.6018L35.3694 49.6016L35.3703 49.6007C35.6836 47.6498 36.1831 46.4742 37.1389 45.735C37.1887 45.6965 37.2397 45.6592 37.292 45.623C38.0206 45.119 38.9968 44.8355 40.3238 44.6431L40.3239 44.6431L40.3247 44.6423L40.3248 44.6422L40.325 44.6421Z" fill="#EFEFEF"/>
<path d="M31.1734 58.5728C33.1282 63.7408 39.626 63.3778 40.1332 57.4055L40.708 57.4393C40.708 57.4393 38.6624 63.5639 41.2658 70.1961C43.8692 76.8282 39.7444 79.6706 38.1215 77.3696C39.3515 80.2365 42.0422 79.5527 42.1242 76.794L42.2671 85H42.6651L42.808 76.794C42.89 79.5527 45.5806 80.2365 46.8107 77.3696C45.1878 79.6706 41.063 76.8282 43.6664 70.1961C46.2698 63.5639 44.2242 57.4393 44.2242 57.4393L44.799 57.4055C45.3062 63.3778 51.804 63.7408 53.7588 58.5728C51.3413 59.588 47.0981 56.661 47.0981 52.7359C45.8162 53.4486 44.7121 53.6276 42.4661 53.7871C40.2201 53.6276 39.116 53.4486 37.8341 52.7359C37.8341 56.661 33.5909 59.588 31.1734 58.5728Z" fill="#EFEFEF"/>
<path d="M20.6818 64.6543C20.1048 65.364 19.4907 66.1504 19.2552 66.5585C18.1826 68.4181 18.9422 70.1119 20.7733 70.1878C17.9599 71.9337 16.9003 68.8253 18.1957 67.2463L12.7666 72.516L12.6724 72.4478L12.6512 72.4685L12.5963 72.3926L12.5218 72.3387L12.5422 72.3177L12.474 72.2235L17.7395 66.79C16.1617 68.0864 13.0558 67.0261 14.8003 64.2103C14.8762 66.043 16.5686 66.8031 18.4267 65.7296C18.8345 65.494 19.6203 64.8793 20.3294 64.3019L21.6418 62.951L21.7839 63.0876L21.7861 63.0856L21.8362 63.1378L21.8971 63.1964L21.8949 63.199L22.0313 63.3412L20.6818 64.6543Z" fill="#EFEFEF"/>
<path d="M32.5185 66.119L32.5181 66.1178L32.5174 66.1195C28.7316 68.0381 27.9219 69.7115 29.3557 74.004L29.355 74.0057L29.3561 74.0051L29.3565 74.0063L29.3573 74.0046C33.3583 71.895 33.9291 70.1256 32.5189 66.1201L32.5196 66.1184L32.5185 66.119Z" fill="#EFEFEF"/>
<path d="M63.9867 64.332C64.6281 65.1115 65.4051 66.0872 65.6769 66.5585C66.7496 68.4181 65.99 70.1119 64.1589 70.1878C66.9723 71.9337 68.0319 68.8253 66.7365 67.2463L72.1656 72.516L72.2985 72.4197L72.3484 72.4683L72.5256 72.2233L67.2602 66.7898C68.8379 68.0863 71.9438 67.0259 70.1993 64.2102C70.1234 66.0428 68.431 66.803 66.5729 65.7295C66.1001 65.4563 65.1192 64.6735 64.3387 64.0301L63.2904 62.951L63.0351 63.1964C63.0351 63.1964 63.0469 63.2102 63.069 63.2361L62.9683 63.341L63.9867 64.332Z" fill="#EFEFEF"/>
<path d="M52.4137 66.119L52.4141 66.1178L52.4148 66.1195C56.2005 68.0381 57.0103 69.7115 55.5764 74.004L55.5771 74.0057L55.576 74.0051L55.5756 74.0063L55.5749 74.0046C51.5739 71.895 51.0031 70.1256 52.4133 66.1201L52.4126 66.1184L52.4137 66.119Z" fill="#EFEFEF"/>
<path d="M44.6073 44.6425L44.6074 44.643L44.6064 44.6429L44.6075 44.6439C45.0782 47.8976 46.0958 49.0439 49.5609 49.6013L49.562 49.6024L49.5619 49.6015L49.5628 49.6016L49.5617 49.6005L49.56 49.5902C49.5711 49.592 49.5822 49.5938 49.5933 49.5956C49.605 49.5975 49.6167 49.5994 49.6285 49.6013L49.6296 49.6024L49.6295 49.6015L49.6304 49.6016L49.6293 49.6005C49.0724 46.1326 47.927 45.1143 44.6759 44.6431L44.6749 44.6421L44.675 44.643L44.6746 44.6429L44.674 44.6429L44.6751 44.6439L44.6765 44.6531C44.6538 44.6498 44.6311 44.6464 44.6083 44.6431L44.6072 44.6421L44.6073 44.6425Z" fill="#EFEFEF"/>
<path d="M18.8659 32.5444C18.8663 32.5442 18.8667 32.5441 18.8671 32.544L18.8653 32.5433C16.9483 28.7545 15.2762 27.9441 10.9872 29.3791L10.9854 29.3784L10.986 29.3795L10.9848 29.3799L10.9866 29.3806C13.0945 33.3849 14.8625 33.9561 18.8647 32.5448L18.8665 32.5455C18.8663 32.5451 18.8661 32.5448 18.8659 32.5444Z" fill="#EFEFEF"/>
<path d="M40.3247 40.3577L40.3248 40.358L40.3237 40.3569C37.0726 39.8857 35.9272 38.8674 35.3703 35.3995L35.3692 35.3984H35.3694L35.3694 35.3984L35.3701 35.3985L35.37 35.3976L35.3702 35.3978L35.3702 35.3976L35.3713 35.3987C38.8364 35.9561 39.8539 37.1024 40.3247 40.3561L40.3258 40.3571L40.3256 40.3571L40.3255 40.3571L40.3248 40.357L40.3249 40.3575L40.325 40.3579L40.3247 40.3577Z" fill="#EFEFEF"/>
<path d="M18.8659 52.4558L18.8664 52.456L18.8671 52.4562L18.8653 52.4569C16.9483 56.2456 15.2762 57.056 10.9872 55.621L10.9854 55.6217L10.986 55.6206L10.9848 55.6202L10.9866 55.6195C13.0945 51.6153 14.8625 51.044 18.8647 52.4554L18.8665 52.4547L18.8659 52.4558Z" fill="#EFEFEF"/>
<path d="M57.4276 40.1652C63.3951 39.6576 63.7579 33.1546 58.5941 31.1982C59.6084 33.6176 56.6838 37.8643 52.7618 37.8643C53.4736 39.1466 53.6526 40.2512 53.812 42.4972C53.6525 44.7469 53.4738 45.8523 52.7614 47.1357C56.6834 47.1357 59.608 51.3824 58.5937 53.8018C63.7575 51.8454 63.3947 45.3424 57.4272 44.8348L57.461 44.2596C57.461 44.2596 63.5807 46.3067 70.2076 43.7012C76.8344 41.0957 79.6745 45.2239 77.3754 46.8481C80.24 45.6171 79.5567 42.9242 76.8002 42.8422L84.9996 42.6991V42.6041L85 42.6041V42.3009L76.8006 42.1578C79.5571 42.0758 80.2403 39.3829 77.3758 38.1519C79.6749 39.7761 76.8348 43.9043 70.2079 41.2988C63.5811 38.6933 57.4614 40.7404 57.4614 40.7404L57.4276 40.1652Z" fill="#EFEFEF"/>
<path d="M64.3371 20.9716C65.1179 20.3278 66.1001 19.5439 66.5733 19.2705C68.4314 18.197 70.1238 18.9572 70.1997 20.7898C71.9442 17.9741 68.8383 16.9137 67.2606 18.2101L72.526 12.7767L72.3488 12.5317L72.2987 12.5804L72.1656 12.484L66.7365 17.7537C68.0319 16.1747 66.9723 13.0663 64.1589 14.8122C65.99 14.8881 66.7496 16.5819 65.6769 18.4415C65.4049 18.9132 64.6268 19.8902 63.985 20.67L62.9687 21.659L63.0692 21.7637C63.047 21.7898 63.0351 21.8036 63.0351 21.8036L63.2904 22.049L64.3371 20.9716Z" fill="#EFEFEF"/>
<path d="M66.1341 32.5444L66.1329 32.544L66.1347 32.5433C68.0517 28.7545 69.7238 27.9441 74.0128 29.3791L74.0146 29.3784L74.014 29.3795L74.0152 29.3799L74.0134 29.3806C71.9055 33.3849 70.1375 33.9562 66.1353 32.5448L66.1336 32.5455L66.1338 32.545L66.1341 32.5444Z" fill="#EFEFEF"/>
<path d="M44.6744 40.3571L44.6754 40.357L44.6753 40.358L44.6763 40.3569C47.9274 39.8857 49.0728 38.8674 49.6297 35.3995L49.6308 35.3984L49.6299 35.3985L49.63 35.3976L49.6289 35.3987C49.6058 35.4024 49.5829 35.4061 49.56 35.4099C49.5606 35.4064 49.5611 35.403 49.5617 35.3995L49.5628 35.3984L49.5619 35.3985L49.562 35.3976L49.5609 35.3987C46.0958 35.9561 45.0782 37.1024 44.6075 40.3561L44.6064 40.3571L44.6074 40.357C44.6073 40.3573 44.6073 40.3576 44.6072 40.3579L44.6083 40.3569C44.6313 40.3535 44.6541 40.3502 44.6769 40.3468C44.6764 40.3499 44.676 40.353 44.6755 40.3561L44.6744 40.3571Z" fill="#EFEFEF"/>
<path d="M66.1337 52.4556C66.1333 52.4558 66.1329 52.4559 66.1326 52.456L66.1343 52.4567C68.0513 56.2455 69.7234 57.0559 74.0124 55.6209L74.0142 55.6216L74.0136 55.6205L74.0148 55.6201L74.013 55.6194C71.9051 51.6151 70.1371 51.0439 66.1349 52.4552L66.1332 52.4545C66.1333 52.4549 66.1335 52.4552 66.1337 52.4556Z" fill="#EFEFEF"/>
<path d="M32.5185 18.881C32.5183 18.8814 32.5182 18.8818 32.5181 18.8822L32.5174 18.8805C28.7316 16.9619 27.9219 15.2885 29.3557 10.996L29.355 10.9943L29.3561 10.9948L29.3565 10.9937L29.3573 10.9954C33.3583 13.105 33.9291 14.8744 32.5189 18.8799L32.5196 18.8816L32.5193 18.8815L32.519 18.8813L32.5185 18.881Z" fill="#EFEFEF"/>
<path d="M52.4137 18.881C52.4139 18.8814 52.414 18.8818 52.4141 18.8822L52.4148 18.8805C56.2005 16.9619 57.0103 15.2885 55.5764 10.996L55.5771 10.9943L55.576 10.9948L55.5756 10.9937L55.5749 10.9954C51.5739 13.105 51.0031 14.8744 52.4133 18.8799L52.4126 18.8816L52.4137 18.881Z" fill="#EFEFEF"/>
</svg>
