<svg width="29" height="25" viewBox="0 0 29 25" fill="none" xmlns="http://www.w3.org/2000/svg">
<path d="M27.7919 5.47897L24.0169 9.24148C23.2669 17.979 15.8919 24.7665 7.07943 24.7665C5.26693 24.7665 3.76693 24.479 2.62943 23.9165C1.71693 23.454 1.34193 22.9665 1.24193 22.8165C1.1592 22.6908 1.10588 22.5481 1.08596 22.399C1.06605 22.2498 1.08004 22.0981 1.12689 21.9551C1.17375 21.8122 1.25227 21.6816 1.35659 21.5732C1.46092 21.4648 1.58837 21.3813 1.72943 21.329C1.75443 21.3165 4.70443 20.1915 6.61693 18.029C5.43086 17.1845 4.38837 16.1546 3.52943 14.979C1.81693 12.654 0.00443441 8.61647 1.09193 2.59147C1.12612 2.41236 1.20805 2.2458 1.32906 2.10938C1.45007 1.97297 1.60567 1.87177 1.77943 1.81647C1.95375 1.7594 2.14041 1.75136 2.31899 1.79325C2.49756 1.83514 2.66118 1.92534 2.79193 2.05397C2.82943 2.10397 6.99193 6.20397 12.0794 7.52897V6.76647C12.0843 5.97361 12.2454 5.18949 12.5533 4.45886C12.8613 3.72823 13.3101 3.06542 13.8743 2.50827C14.4384 1.95111 15.1067 1.51053 15.8411 1.21167C16.5755 0.912812 17.3616 0.761535 18.1544 0.766475C19.195 0.781316 20.2141 1.06545 21.1122 1.5912C22.0104 2.11695 22.757 2.86638 23.2794 3.76647H27.0794C27.2769 3.76586 27.4701 3.82369 27.6347 3.93269C27.7993 4.04169 27.9279 4.19697 28.0044 4.37897C28.0765 4.56369 28.0948 4.76502 28.0572 4.95968C28.0195 5.15435 27.9276 5.33439 27.7919 5.47897V5.47897Z" fill="#F3F3F3"/>
</svg>
