<svg width="308" height="308" viewBox="0 0 308 308" fill="none" xmlns="http://www.w3.org/2000/svg">
<rect x="0.5" y="0.5" width="307" height="307" rx="9.5" fill="#191919"/>
<path d="M146.617 184.172C144.859 179.602 143.98 175.588 143.98 172.131C143.98 167.326 145.445 163.312 148.375 160.09C151.305 156.867 155.436 154.055 160.768 151.652L173.775 145.852C180.162 142.98 184.703 139.787 187.398 136.271C190.094 132.756 191.441 128.244 191.441 122.736C191.441 113.889 188.365 107.121 182.213 102.434C176.061 97.6875 167.271 95.3145 155.846 95.3145C143.541 95.3145 134.02 97.8633 127.281 102.961C120.602 108.059 117.262 115.5 117.262 125.285C117.262 129.562 117.848 133.957 119.02 138.469L108.648 136.096C108.004 132.229 107.682 128.742 107.682 125.637C107.682 113.508 111.783 104.25 119.986 97.8633C128.248 91.418 140.201 88.1953 155.846 88.1953C170.143 88.1953 181.1 91.2715 188.717 97.4238C196.393 103.576 200.23 112.365 200.23 123.791C200.23 128.889 199.322 133.166 197.506 136.623C195.689 140.08 193.141 143.01 189.859 145.412C186.578 147.814 182.33 150.158 177.115 152.443L162.877 158.684C155.318 161.965 151.539 165.92 151.539 170.549C151.539 174.24 154.059 178.342 159.098 182.854L158.658 184.172H146.617ZM160.152 213H145.738V198.586H160.152V213Z" fill="#CDB890"/>
<rect x="0.5" y="0.5" width="307" height="307" rx="9.5" stroke="#191919"/>
</svg>
